<?xml version="1.0" encoding="UTF-8"?>
<svg version="1.1" xmlns="http://www.w3.org/2000/svg" width="1024" height="1024">
<path d="M0 0 C337.92 0 675.84 0 1024 0 C1024 337.92 1024 675.84 1024 1024 C686.08 1024 348.16 1024 0 1024 C0 686.08 0 348.16 0 0 Z " fill="#FDFEFE" transform="translate(0,0)"/>
<path d="M0 0 C-0.12938965 0.75539062 -0.2587793 1.51078125 -0.39208984 2.2890625 C-3.93735235 23.07982083 -7.25490219 43.90319029 -10.49129105 64.74407578 C-14.06489675 87.75630043 -17.71971626 110.75248015 -21.51904297 133.72875977 C-23.58189297 146.22407908 -25.59662837 158.72586798 -27.55758476 171.23752785 C-27.93552132 173.64753869 -28.31440296 176.057399 -28.69361877 178.46720886 C-28.94491858 180.0644832 -29.19621558 181.66175798 -29.44750977 183.2590332 C-29.57150681 184.04703277 -29.69550386 184.83503233 -29.8232584 185.64691067 C-30.56143772 190.34268818 -31.29282479 195.0394647 -32.0194912 199.73703671 C-32.47214564 202.653352 -32.93086245 205.56869065 -33.39115906 208.48380852 C-33.60520818 209.84809165 -33.81661777 211.21279179 -34.0252533 212.57791328 C-34.31202534 214.45241109 -34.6087611 216.32537653 -34.90600586 218.19824219 C-35.06983261 219.25146667 -35.23365936 220.30469116 -35.40245056 221.38983154 C-36 224 -36 224 -38 227 C-45.25928758 221.13331045 -52.38273825 215.12988254 -59.45703125 209.04296875 C-63.33838892 205.70442865 -67.24125777 202.39176286 -71.15771484 199.09448242 C-73.96586997 196.72915506 -76.75743741 194.34756956 -79.52734375 191.9375 C-80.10863037 191.43549072 -80.68991699 190.93348145 -81.28881836 190.41625977 C-82.39710173 189.45850939 -83.50108599 188.49575214 -84.59985352 187.52709961 C-87.57864875 184.96410547 -90.25544191 183.21835806 -94 182 C-107.86619627 198.09484974 -107.86619627 198.09484974 -121.4375 214.4375 C-125.8514623 219.85856956 -130.39782805 225.15841974 -134.95703125 230.45703125 C-137.84230617 233.81142676 -140.70674413 237.18295871 -143.5625 240.5625 C-144.01294678 241.09544678 -144.46339355 241.62839355 -144.92749023 242.17749023 C-146.28536208 243.78468264 -147.64277043 245.39226519 -149 247 C-157.65119856 257.24795907 -166.35517166 267.44922683 -175.109375 277.609375 C-179.61110917 282.83958195 -184.09146132 288.0763282 -188.4375 293.4375 C-192.72149429 298.72161796 -197.17345702 303.8504406 -201.65991211 308.96264648 C-202.19366455 309.57309814 -202.72741699 310.1835498 -203.27734375 310.8125 C-203.75421631 311.35519531 -204.23108887 311.89789062 -204.72241211 312.45703125 C-206.19804601 314.18505399 -206.19804601 314.18505399 -208 317 C-207.65741853 320.24924726 -206.30323412 322.21538671 -204.296875 324.73046875 C-203.45479492 325.7978125 -203.45479492 325.7978125 -202.59570312 326.88671875 C-201.98662109 327.64597656 -201.37753906 328.40523437 -200.75 329.1875 C-199.46285494 330.81586366 -198.17641222 332.4447827 -196.890625 334.07421875 C-196.23771484 334.89841309 -195.58480469 335.72260742 -194.91210938 336.57177734 C-192.06769664 340.18394908 -189.28264178 343.84016967 -186.5 347.5 C-181.38050926 354.21556266 -176.21013258 360.89007497 -171.01953125 367.55078125 C-167.66506708 371.85617612 -164.32328149 376.17048762 -161 380.5 C-157.02101023 385.68315772 -153.01465625 390.84442648 -149 396 C-144.18248203 402.18659893 -139.38765077 408.38941078 -134.61328125 414.609375 C-131.489524 418.6703813 -128.33674639 422.70875317 -125.1875 426.75 C-118.90299498 434.81750692 -112.68354012 442.93317344 -106.47998047 451.06298828 C-103.45661906 455.01999082 -100.41727147 458.96467076 -97.37890625 462.91015625 C-95.80188021 464.95847742 -94.22634141 467.00794455 -92.65234375 469.05859375 C-87.87222297 475.2844096 -83.06978857 481.49233588 -78.25 487.6875 C-77.65662842 488.4503833 -77.06325684 489.2132666 -76.4519043 489.99926758 C-73.4791743 493.81963544 -70.50273325 497.6370219 -67.51953125 501.44921875 C-60.78368776 510.06702416 -54.1592222 518.75770528 -47.61669922 527.52319336 C-41.70232224 535.43234656 -35.64012934 543.22138212 -29.55761719 551.00146484 C-26.50148605 554.92270144 -23.48384971 558.87345369 -20.4609375 562.8203125 C-18.65495111 565.16646245 -16.82171648 567.48922298 -14.9765625 569.8046875 C-14.47020264 570.44180664 -13.96384277 571.07892578 -13.44213867 571.73535156 C-12.46159565 572.96679777 -11.47754672 574.19546304 -10.48950195 575.42089844 C-8.48228399 577.94375556 -7.02863704 579.91408889 -6 583 C-26.77671792 583.09382763 -47.55340044 583.16416621 -68.33028793 583.20724869 C-77.97937899 583.2277926 -87.6283377 583.25575506 -97.27734375 583.30175781 C-105.69652729 583.34187779 -114.11561488 583.36749203 -122.53489137 583.37635398 C-126.98460169 583.38152657 -131.43403776 583.39350908 -135.88365936 583.42292023 C-170.25799463 583.64100457 -199.05702553 580.91021275 -225 556 C-225.78890625 555.27425781 -226.5778125 554.54851563 -227.390625 553.80078125 C-234.58573145 546.96543012 -240.35156158 539.21965068 -246.27490234 531.28955078 C-249.15491611 527.46719455 -252.11216615 523.70565567 -255.0625 519.9375 C-259.88596928 513.75639671 -264.63796253 507.52825878 -269.32495117 501.24316406 C-273.46722964 495.69293242 -277.6678112 490.18862997 -281.875 484.6875 C-287.69992395 477.06553982 -293.43117714 469.38148905 -299.1015625 461.64404297 C-303.96628508 455.01585845 -308.94667848 448.48548408 -314 442 C-317.26743022 445.1877368 -320.27017302 448.43960742 -323.125 452 C-326.48539499 456.15598519 -329.90253379 460.25071828 -333.375 464.3125 C-337.26369886 468.87105199 -341.01190096 473.51820902 -344.6875 478.25 C-348.32079575 482.92592688 -352.06828628 487.42219463 -356.05078125 491.80859375 C-359.0059196 495.13090359 -361.78077766 498.59472771 -364.58203125 502.046875 C-367.18689042 505.22825389 -369.83660216 508.36767783 -372.5 511.5 C-375.87291923 515.46896282 -379.21176849 519.46017272 -382.5 523.5 C-386.24610333 528.10235552 -390.06105524 532.64057661 -393.91186523 537.15527344 C-396.86965903 540.63162468 -399.72848759 544.17124712 -402.5625 547.75 C-419.25386415 568.09812943 -443.28563081 579.28912738 -469 583 C-471.25130893 583.08599195 -473.50483207 583.1220341 -475.75778198 583.12025452 C-476.41219336 583.12110894 -477.06660473 583.12196337 -477.74084675 583.12284368 C-479.91954475 583.12448235 -482.09816464 583.11900371 -484.27685547 583.11352539 C-485.844223 583.11324314 -487.41159067 583.11340199 -488.97895813 583.1139679 C-493.22434683 583.11425441 -497.46970719 583.10838125 -501.71508932 583.10139394 C-506.15536448 583.09513611 -510.5956403 583.09455468 -515.03591919 583.09336853 C-523.43993467 583.09026238 -531.84393711 583.08205864 -540.24794686 583.07201904 C-549.81743056 583.06083568 -559.38691488 583.05534185 -568.95640349 583.05032361 C-588.6376096 583.03987543 -608.31880398 583.02228985 -628 583 C-626.73840335 579.73265526 -625.56678288 577.15844916 -623.3125 574.46875 C-622.78382324 573.8298584 -622.25514648 573.1909668 -621.71044922 572.53271484 C-621.14600098 571.86191895 -620.58155273 571.19112305 -620 570.5 C-618.81375222 569.06622164 -617.62887096 567.63131165 -616.4453125 566.1953125 C-615.85911133 565.48536133 -615.27291016 564.77541016 -614.66894531 564.04394531 C-612.34542112 561.19834196 -610.10056478 558.29750005 -607.875 555.375 C-604.46865329 550.91208048 -601.03504854 546.47410392 -597.5625 542.0625 C-597.10617187 541.48242188 -596.64984375 540.90234375 -596.1796875 540.3046875 C-593.84812521 537.34261822 -591.51296639 534.38341512 -589.17578125 531.42578125 C-583.33899665 524.03056301 -577.61287247 516.56698363 -572 509 C-573.155 508.67 -574.31 508.34 -575.5 508 C-607.45055706 497.24981257 -636.78582728 472.43942237 -657 446 C-657.80050781 444.95457031 -658.60101562 443.90914062 -659.42578125 442.83203125 C-678.86755028 416.83625961 -691.05515572 385.96185344 -696 354 C-696.176521 352.93507324 -696.35304199 351.87014648 -696.53491211 350.77294922 C-697.05947731 346.51750009 -697.16195032 342.37582257 -697.16796875 338.09375 C-697.17129715 337.25138794 -697.17462555 336.40902588 -697.17805481 335.5411377 C-697.18309645 333.7627822 -697.18546399 331.98441732 -697.18530273 330.20605469 C-697.18747106 327.53564063 -697.20560603 324.86565268 -697.22460938 322.1953125 C-697.25835224 311.94058061 -696.71427979 302.13279376 -695 292 C-694.78802979 290.74364746 -694.57605957 289.48729492 -694.35766602 288.19287109 C-686.25958349 242.31132838 -659.05921812 199.10563441 -622 171 C-621.42926758 170.55865723 -620.85853516 170.11731445 -620.27050781 169.66259766 C-598.88640446 153.25611963 -574.03918272 141.74004569 -548 135 C-548.76441406 134.07703125 -549.52882813 133.1540625 -550.31640625 132.203125 C-557.91392899 122.97189444 -565.1749511 113.53142831 -572.3125 103.94140625 C-575.66981896 99.4308832 -579.07426157 94.95868003 -582.5 90.5 C-587.19254774 84.38850662 -591.8265201 78.23573127 -596.4375 72.0625 C-601.2880015 65.57189191 -606.1975474 59.13401065 -611.1875 52.75 C-615.78577898 46.8602673 -620.3623188 40.9556858 -624.875 35 C-625.65266724 33.98437988 -625.65266724 33.98437988 -626.44604492 32.94824219 C-630 28.23242892 -630 28.23242892 -630 26 C-609.09289799 25.90617579 -588.18583115 25.83583544 -567.27856064 25.79275131 C-557.56893588 25.77220669 -547.85944263 25.74424282 -538.14990234 25.69824219 C-529.6779811 25.65812444 -521.20615519 25.63250849 -512.73414159 25.62364602 C-508.25648636 25.61847307 -503.77910364 25.6064881 -499.30153656 25.57707977 C-464.98780622 25.3606441 -435.99977904 27.82956 -410 53 C-409.20323853 53.74975098 -409.20323853 53.74975098 -408.39038086 54.51464844 C-403.73041774 59.00178059 -399.94562941 63.87211177 -396.1875 69.125 C-394.95290958 70.82630992 -393.71722933 72.52682951 -392.48046875 74.2265625 C-391.88411621 75.04801758 -391.28776367 75.86947266 -390.67333984 76.71582031 C-388.49833263 79.68479719 -386.25933103 82.59461233 -384 85.5 C-380.04072962 90.60707189 -376.19488022 95.78798565 -372.375 101 C-367.32325186 107.89076172 -362.1935502 114.71551416 -357 121.5 C-351.86993039 128.20195895 -346.80145334 134.94231724 -341.8125 141.75 C-337.47273327 147.6691932 -333.09119153 153.55051955 -328.625 159.375 C-328.10953613 160.04764893 -327.59407227 160.72029785 -327.06298828 161.41333008 C-324.6719444 164.52943081 -322.27648604 167.64204875 -319.87548828 170.75048828 C-317.64210593 173.64306065 -315.41462979 176.54011208 -313.1875 179.4375 C-312.47480957 180.35644043 -311.76211914 181.27538086 -311.02783203 182.22216797 C-310.37282715 183.07568848 -309.71782227 183.92920898 -309.04296875 184.80859375 C-308.16161255 185.95026001 -308.16161255 185.95026001 -307.26245117 187.11499023 C-306 189 -306 189 -306 191 C-305.05962891 190.52473877 -304.11925781 190.04947754 -303.15039062 189.55981445 C-292.67158781 184.28190538 -282.10950025 179.19669402 -271.5 174.1875 C-270.67826294 173.79902893 -269.85652588 173.41055786 -269.0098877 173.01031494 C-258.60769844 168.09378328 -248.19736341 163.19491493 -237.75 158.375 C-236.76966797 157.92020264 -235.78933594 157.46540527 -234.77929688 156.99682617 C-233.89822266 156.59310791 -233.01714844 156.18938965 -232.109375 155.7734375 C-231.35624023 155.42716309 -230.60310547 155.08088867 -229.82714844 154.72412109 C-228 154 -228 154 -226 154 C-227.56915101 157.7073348 -229.87895254 160.20891864 -232.625 163.125 C-236.5808293 167.38315396 -240.28364097 171.77099789 -243.875 176.33984375 C-246.33824114 179.42342319 -248.87925028 182.43271142 -251.4375 185.4375 C-254.83206947 189.42680222 -258.19376532 193.43670264 -261.5 197.5 C-266.12421061 203.1774116 -270.8517681 208.76300005 -275.59277344 214.34277344 C-277.8989542 217.05865738 -280.19928668 219.7794844 -282.5 222.5 C-285.27046076 225.77597605 -288.04225845 229.05077135 -290.8203125 232.3203125 C-295.13723805 237.40517431 -299.42591719 242.50425716 -303.625 247.6875 C-307.20105301 252.0843908 -310.94364349 256.29016197 -314.7578125 260.48046875 C-317.81407569 263.91477146 -320.69997942 267.47380186 -323.58203125 271.0546875 C-325.36108773 273.22174499 -327.16095805 275.34135136 -329.01171875 277.4453125 C-329.51848145 278.02627686 -330.02524414 278.60724121 -330.54736328 279.20581055 C-331.5390889 280.33927974 -332.53851615 281.46606745 -333.54638672 282.58520508 C-336.29697655 285.74597058 -337 286.6374325 -337 291 C-335.56254642 293.20181382 -334.1300427 295.20388034 -332.5 297.25 C-332.07074219 297.80429687 -331.64148438 298.35859375 -331.19921875 298.9296875 C-330.14136807 300.29313949 -329.07180218 301.64748772 -328 303 C-321.45472964 296.52338632 -315.35075067 289.72353932 -309.5625 282.5625 C-306.48663412 278.75912497 -303.31246834 275.09917348 -300 271.5 C-295.98025464 267.12829537 -292.20011805 262.62213114 -288.46875 258.00390625 C-285.59962776 254.51283821 -282.65355539 251.09621768 -279.6875 247.6875 C-278.86076782 246.73713867 -278.86076782 246.73713867 -278.01733398 245.76757812 C-276.89821841 244.48151545 -275.77899624 243.19554552 -274.65966797 241.90966797 C-268.45127377 234.76608759 -262.27176028 227.60354128 -256.3125 220.25 C-252.75732096 215.86848205 -249.03230463 211.68289319 -245.234375 207.51171875 C-242.99865467 204.99848768 -240.86622318 202.42688521 -238.75 199.8125 C-234.07052325 194.03436349 -229.2058418 188.43101044 -224.32421875 182.82421875 C-221.19707968 179.23232055 -218.09481234 175.61975649 -215 172 C-210.30794492 166.51522682 -205.58696014 161.05623674 -200.85546875 155.60546875 C-196.7282839 150.84787858 -192.62405693 146.07115083 -188.53271484 141.28271484 C-185.89424978 138.19796828 -183.24216233 135.12621262 -180.5703125 132.0703125 C-179.70792969 131.08224609 -179.70792969 131.08224609 -178.828125 130.07421875 C-177.73413347 128.82215046 -176.63796088 127.57198267 -175.5390625 126.32421875 C-171.80030611 122.04181666 -168.35646882 117.58732342 -165 113 C-165.52730713 112.60844727 -166.05461426 112.21689453 -166.59790039 111.81347656 C-176.09315376 104.75308849 -185.5469569 97.66410476 -194.74829102 90.22314453 C-198.78543236 86.95996867 -202.87180834 83.77207598 -207 80.625 C-211.46352988 77.21268369 -215.79038813 73.72012212 -220 70 C-219 68 -219 68 -216.19586182 66.91323853 C-214.94045593 66.52115204 -213.68505005 66.12906555 -212.39160156 65.72509766 C-211.70032669 65.50689865 -211.00905182 65.28869965 -210.29682922 65.06388855 C-207.99698487 64.33996802 -205.69388971 63.62701852 -203.390625 62.9140625 C-201.78631311 62.41149576 -200.18221026 61.90826128 -198.57830811 61.40438843 C-194.3373272 60.0740933 -190.09350738 58.75308539 -185.84906006 57.43389893 C-181.57859365 56.1048124 -177.31091956 54.76682516 -173.04296875 53.4296875 C-159.70523204 49.25415218 -146.36104814 45.10041275 -133 41 C-115.79719105 35.7145737 -98.63941584 30.29963766 -81.5 24.8125 C-65.08334396 19.55723785 -48.6482906 14.36541458 -32.1875 9.25 C-31.23456055 8.95372711 -30.28162109 8.65745422 -29.29980469 8.35220337 C-26.58946445 7.50996514 -23.87881524 6.66873226 -21.16796875 5.828125 C-20.38451584 5.58501083 -19.60106293 5.34189667 -18.79386902 5.09141541 C-16.53029941 4.39080155 -14.26533813 3.69487248 -12 3 C-11.10173492 2.72200562 -10.20346985 2.44401123 -9.27798462 2.15759277 C-8.37841034 1.88225708 -7.47883606 1.60692139 -6.55200195 1.32324219 C-5.31870903 0.94386505 -5.31870903 0.94386505 -4.0605011 0.55682373 C-2 0 -2 0 0 0 Z " fill="#144859" transform="translate(862,207)"/>
<path d="M0 0 C-0.12938965 0.75539062 -0.2587793 1.51078125 -0.39208984 2.2890625 C-3.93735235 23.07982083 -7.25490219 43.90319029 -10.49129105 64.74407578 C-14.06489675 87.75630043 -17.71971626 110.75248015 -21.51904297 133.72875977 C-23.58189297 146.22407908 -25.59662837 158.72586798 -27.55758476 171.23752785 C-27.93552132 173.64753869 -28.31440296 176.057399 -28.69361877 178.46720886 C-28.94491858 180.0644832 -29.19621558 181.66175798 -29.44750977 183.2590332 C-29.57150681 184.04703277 -29.69550386 184.83503233 -29.8232584 185.64691067 C-30.56143772 190.34268818 -31.29282479 195.0394647 -32.0194912 199.73703671 C-32.47214564 202.653352 -32.93086245 205.56869065 -33.39115906 208.48380852 C-33.60520818 209.84809165 -33.81661777 211.21279179 -34.0252533 212.57791328 C-34.31202534 214.45241109 -34.6087611 216.32537653 -34.90600586 218.19824219 C-35.06983261 219.25146667 -35.23365936 220.30469116 -35.40245056 221.38983154 C-36 224 -36 224 -38 227 C-45.25928758 221.13331045 -52.38273825 215.12988254 -59.45703125 209.04296875 C-63.33838892 205.70442865 -67.24125777 202.39176286 -71.15771484 199.09448242 C-73.96586997 196.72915506 -76.75743741 194.34756956 -79.52734375 191.9375 C-80.10863037 191.43549072 -80.68991699 190.93348145 -81.28881836 190.41625977 C-82.39710173 189.45850939 -83.50108599 188.49575214 -84.59985352 187.52709961 C-87.57864875 184.96410547 -90.25544191 183.21835806 -94 182 C-107.86619627 198.09484974 -107.86619627 198.09484974 -121.4375 214.4375 C-125.8514623 219.85856956 -130.39782805 225.15841974 -134.95703125 230.45703125 C-137.84230617 233.81142676 -140.70674413 237.18295871 -143.5625 240.5625 C-144.01294678 241.09544678 -144.46339355 241.62839355 -144.92749023 242.17749023 C-146.28536208 243.78468264 -147.64277043 245.39226519 -149 247 C-157.65119856 257.24795907 -166.35517166 267.44922683 -175.109375 277.609375 C-179.61110917 282.83958195 -184.09146132 288.0763282 -188.4375 293.4375 C-192.72149429 298.72161796 -197.17345702 303.8504406 -201.65991211 308.96264648 C-202.19366455 309.57309814 -202.72741699 310.1835498 -203.27734375 310.8125 C-203.75421631 311.35519531 -204.23108887 311.89789062 -204.72241211 312.45703125 C-206.19804601 314.18505399 -206.19804601 314.18505399 -208 317 C-207.65741853 320.24924726 -206.30323412 322.21538671 -204.296875 324.73046875 C-203.45479492 325.7978125 -203.45479492 325.7978125 -202.59570312 326.88671875 C-201.98662109 327.64597656 -201.37753906 328.40523437 -200.75 329.1875 C-199.46285494 330.81586366 -198.17641222 332.4447827 -196.890625 334.07421875 C-196.23771484 334.89841309 -195.58480469 335.72260742 -194.91210938 336.57177734 C-192.06769664 340.18394908 -189.28264178 343.84016967 -186.5 347.5 C-181.38050926 354.21556266 -176.21013258 360.89007497 -171.01953125 367.55078125 C-167.66506708 371.85617612 -164.32328149 376.17048762 -161 380.5 C-157.02101023 385.68315772 -153.01465625 390.84442648 -149 396 C-144.18248203 402.18659893 -139.38765077 408.38941078 -134.61328125 414.609375 C-131.489524 418.6703813 -128.33674639 422.70875317 -125.1875 426.75 C-118.90299498 434.81750692 -112.68354012 442.93317344 -106.47998047 451.06298828 C-103.45661906 455.01999082 -100.41727147 458.96467076 -97.37890625 462.91015625 C-95.80188021 464.95847742 -94.22634141 467.00794455 -92.65234375 469.05859375 C-87.87222297 475.2844096 -83.06978857 481.49233588 -78.25 487.6875 C-77.65662842 488.4503833 -77.06325684 489.2132666 -76.4519043 489.99926758 C-73.4791743 493.81963544 -70.50273325 497.6370219 -67.51953125 501.44921875 C-60.78368776 510.06702416 -54.1592222 518.75770528 -47.61669922 527.52319336 C-41.70232224 535.43234656 -35.64012934 543.22138212 -29.55761719 551.00146484 C-26.50148605 554.92270144 -23.48384971 558.87345369 -20.4609375 562.8203125 C-18.65495111 565.16646245 -16.82171648 567.48922298 -14.9765625 569.8046875 C-14.47020264 570.44180664 -13.96384277 571.07892578 -13.44213867 571.73535156 C-12.46159565 572.96679777 -11.47754672 574.19546304 -10.48950195 575.42089844 C-8.48228399 577.94375556 -7.02863704 579.91408889 -6 583 C-59.46 583 -112.92 583 -168 583 C-168 582.67 -168 582.34 -168 582 C-118.5 581.67 -69 581.34 -18 581 C-25.59 579.02 -33.18 577.04 -41 575 C-45.08118614 573.78036229 -49.10128415 572.55926362 -53.125 571.1875 C-54.60625366 570.68512817 -54.60625366 570.68512817 -56.11743164 570.17260742 C-86.89688991 559.52357996 -117.1691545 544.28358186 -142 523 C-143.07577293 522.10550654 -144.15268354 521.21238031 -145.23046875 520.3203125 C-150.54007431 515.90479785 -155.73374555 511.45470057 -160.52734375 506.47265625 C-162.18614742 504.76334088 -162.18614742 504.76334088 -165 502.5625 C-168.76169328 499.34938699 -171.82668232 495.78405541 -175 492 C-175.7528125 491.11183594 -176.505625 490.22367188 -177.28125 489.30859375 C-186.51057038 478.34147413 -195.25629664 467.00829646 -203.94360352 455.60986328 C-208.01219469 450.27595527 -212.12314975 444.97641958 -216.25 439.6875 C-222.31387419 431.91071374 -228.25807894 424.05572055 -234.125 416.12890625 C-238.33202217 410.47196394 -242.63763124 404.92480792 -247.0625 399.4375 C-261 382.12449445 -261 382.12449445 -261 379 C-262.175625 380.2375 -262.175625 380.2375 -263.375 381.5 C-266 384 -266 384 -268 384 C-269.40053089 382.32479602 -270.71897712 380.58076908 -272 378.8125 C-272.81163626 377.70379426 -273.62416758 376.59574331 -274.4375 375.48828125 C-274.85902344 374.91158691 -275.28054688 374.33489258 -275.71484375 373.74072266 C-277.76723346 370.9607951 -279.88389867 368.23154444 -282 365.5 C-285.91127869 360.43260439 -289.77321364 355.33069576 -293.60546875 350.203125 C-295.31288999 347.91913574 -297.02348884 345.63781222 -298.73828125 343.359375 C-304.90854215 335.15686206 -311.02715495 326.91805367 -317.10424805 318.64624023 C-320.70797892 313.74269946 -324.33924998 308.86113164 -328 304 C-327.45472656 303.40574219 -326.90945313 302.81148438 -326.34765625 302.19921875 C-322.27614316 297.72403427 -318.30526067 293.20456389 -314.5 288.5 C-310.88967558 284.03723787 -307.11572071 279.77280467 -303.25 275.53125 C-300.92137947 272.9115519 -298.70437053 270.2248469 -296.5 267.5 C-293.5918662 263.9052235 -290.61458668 260.41739372 -287.5 257 C-283.67829137 252.80270966 -280.08525811 248.46289769 -276.515625 244.05078125 C-273.02487122 239.81742923 -269.41361199 235.69337015 -265.80664062 231.55908203 C-262.55327802 227.82038486 -259.36772494 224.04105163 -256.25 220.1875 C-252.71808913 215.82417215 -249.01293064 211.6616152 -245.234375 207.51171875 C-242.99865467 204.99848768 -240.86622318 202.42688521 -238.75 199.8125 C-234.07052325 194.03436349 -229.2058418 188.43101044 -224.32421875 182.82421875 C-221.19707968 179.23232055 -218.09481234 175.61975649 -215 172 C-210.30794492 166.51522682 -205.58696014 161.05623674 -200.85546875 155.60546875 C-196.7282839 150.84787858 -192.62405693 146.07115083 -188.53271484 141.28271484 C-185.89424978 138.19796828 -183.24216233 135.12621262 -180.5703125 132.0703125 C-179.99539063 131.41160156 -179.42046875 130.75289062 -178.828125 130.07421875 C-177.73413347 128.82215046 -176.63796088 127.57198267 -175.5390625 126.32421875 C-171.80030611 122.04181666 -168.35646882 117.58732342 -165 113 C-165.79096069 112.4126709 -165.79096069 112.4126709 -166.59790039 111.81347656 C-176.09315376 104.75308849 -185.5469569 97.66410476 -194.74829102 90.22314453 C-198.78543236 86.95996867 -202.87180834 83.77207598 -207 80.625 C-211.46352988 77.21268369 -215.79038813 73.72012212 -220 70 C-219 68 -219 68 -216.19586182 66.91323853 C-214.94045593 66.52115204 -213.68505005 66.12906555 -212.39160156 65.72509766 C-211.70032669 65.50689865 -211.00905182 65.28869965 -210.29682922 65.06388855 C-207.99698487 64.33996802 -205.69388971 63.62701852 -203.390625 62.9140625 C-201.78631311 62.41149576 -200.18221026 61.90826128 -198.57830811 61.40438843 C-194.3373272 60.0740933 -190.09350738 58.75308539 -185.84906006 57.43389893 C-181.57859365 56.1048124 -177.31091956 54.76682516 -173.04296875 53.4296875 C-159.70523204 49.25415218 -146.36104814 45.10041275 -133 41 C-115.79719105 35.7145737 -98.63941584 30.29963766 -81.5 24.8125 C-65.08334396 19.55723785 -48.6482906 14.36541458 -32.1875 9.25 C-31.23456055 8.95372711 -30.28162109 8.65745422 -29.29980469 8.35220337 C-26.58946445 7.50996514 -23.87881524 6.66873226 -21.16796875 5.828125 C-20.38451584 5.58501083 -19.60106293 5.34189667 -18.79386902 5.09141541 C-16.53029941 4.39080155 -14.26533813 3.69487248 -12 3 C-11.10173492 2.72200562 -10.20346985 2.44401123 -9.27798462 2.15759277 C-8.37841034 1.88225708 -7.47883606 1.60692139 -6.55200195 1.32324219 C-5.31870903 0.94386505 -5.31870903 0.94386505 -4.0605011 0.55682373 C-2 0 -2 0 0 0 Z " fill="#0E7939" transform="translate(862,207)"/>
<path d="M0 0 C3.46700876 3.35123869 6.51789788 6.78954348 9.4375 10.625 C9.85580078 11.17349609 10.27410156 11.72199219 10.70507812 12.28710938 C15.14266535 18.13345445 19.47414276 24.05888857 23.81713867 29.97558594 C28.78081668 36.72905494 33.86089581 43.37927598 39 50 C41.15006494 52.79188761 43.29586757 55.58705408 45.43994141 58.38354492 C48.51826107 62.39250504 51.65038407 66.35612215 54.8203125 70.29296875 C56 72 56 72 56 74 C56.78375 73.175 57.5675 72.35 58.375 71.5 C61 69 61 69 63 69 C64.51680462 70.969077 65.92150893 72.94414474 67.3125 75 C71.1932284 80.59578794 75.29117038 85.93549679 79.625 91.1875 C83.815106 96.27917553 87.83757742 101.41845065 91.66796875 106.7890625 C101.06800407 119.7318247 110.98612101 132.31084985 120.82421875 144.921875 C123.62888687 148.51841984 126.41216916 152.13079981 129.1875 155.75 C130.79141986 157.83352335 132.39558966 159.91685432 134 162 C134.6506543 162.85005615 134.6506543 162.85005615 135.31445312 163.71728516 C141.09644323 171.26091038 147.07177794 178.45766111 153.58984375 185.37890625 C156 188 156 188 158.09375 190.640625 C159.80839404 192.76284837 161.48138239 194.43900162 163.5625 196.1875 C166.77123762 198.9202161 169.8630787 201.74214598 172.9375 204.625 C208.80287601 237.18503874 262.07810708 265.95981972 311.0625 270.625 C312.361875 270.74875 313.66125 270.8725 315 271 C315 271.33 315 271.66 315 272 C294.0237955 272.07028532 273.04761059 272.12308341 252.07131195 272.15543652 C242.33021594 272.17086229 232.58919338 272.19186914 222.84814453 272.22631836 C214.35135835 272.25635275 205.8546254 272.27560612 197.35778761 272.28226548 C192.86466342 272.28615411 188.37169143 272.29520195 183.87861633 272.31719017 C179.63674111 272.33777796 175.39507863 272.34378953 171.15315819 272.33932304 C169.60858689 272.3401384 168.06400736 272.34596984 166.51947975 272.35761642 C153.34091128 272.45199061 139.75537805 271.55333206 127.6875 265.75 C127.02927246 265.44626465 126.37104492 265.1425293 125.69287109 264.82958984 C115.48474647 260.00071606 107.13061237 253.8069415 99 246 C98.21109375 245.27425781 97.4221875 244.54851562 96.609375 243.80078125 C89.41426855 236.96543012 83.64843842 229.21965068 77.72509766 221.28955078 C74.84508389 217.46719455 71.88783385 213.70565567 68.9375 209.9375 C64.11403072 203.75639671 59.36203747 197.52825878 54.67504883 191.24316406 C50.53277036 185.69293242 46.3321888 180.18862997 42.125 174.6875 C36.30007605 167.06553982 30.56882286 159.38148905 24.8984375 151.64404297 C20.03371492 145.01585845 15.05332152 138.48548408 10 132 C6.73256978 135.1877368 3.72982698 138.43960742 0.875 142 C-2.48539499 146.15598519 -5.90253379 150.25071828 -9.375 154.3125 C-13.26369886 158.87105199 -17.01190096 163.51820902 -20.6875 168.25 C-24.32079575 172.92592688 -28.06828628 177.42219463 -32.05078125 181.80859375 C-35.0059196 185.13090359 -37.78077766 188.59472771 -40.58203125 192.046875 C-43.18689042 195.22825389 -45.83660216 198.36767783 -48.5 201.5 C-51.87291923 205.46896282 -55.21176849 209.46017272 -58.5 213.5 C-62.24610333 218.10235552 -66.06105524 222.64057661 -69.91186523 227.15527344 C-72.86965903 230.63162468 -75.72848759 234.17124712 -78.5625 237.75 C-93.75089082 256.2658828 -115.56706041 267.8072148 -139 272 C-144.36074442 272.49419678 -149.66994496 272.51104929 -155.04492188 272.45410156 C-156.57435577 272.45296935 -158.10379184 272.45361421 -159.63322449 272.45587158 C-163.72945132 272.4570051 -167.82519615 272.43372059 -171.92131233 272.40557575 C-176.22270293 272.38033116 -180.52410827 272.37820214 -184.82556152 272.37347412 C-192.94601493 272.36111134 -201.06624931 272.32838186 -209.18660688 272.28807616 C-218.44190981 272.24314813 -227.69722398 272.22131888 -236.95260906 272.20129442 C-255.96852956 272.15964214 -274.98424708 272.08942247 -294 272 C-294 271.67 -294 271.34 -294 271 C-293.38930664 270.94054199 -292.77861328 270.88108398 -292.14941406 270.81982422 C-249.60279167 266.53676601 -205.71748291 255.36072076 -167.84960938 234.98144531 C-165.86867509 233.93031598 -163.86735714 232.928106 -161.859375 231.9296875 C-139.25779158 220.55929694 -119.1284046 204.51839063 -103.28515625 184.7890625 C-101.09539199 182.11642715 -98.82888802 179.55165122 -96.5 177 C-92.67829137 172.80270966 -89.08525811 168.46289769 -85.515625 164.05078125 C-82.02487122 159.81742923 -78.41361199 155.69337015 -74.80664062 151.55908203 C-71.55327802 147.82038486 -68.36772494 144.04105163 -65.25 140.1875 C-62.42512161 136.69764112 -59.52282421 133.31989486 -56.5 130 C-52.65441259 125.77583145 -49.03269029 121.41046927 -45.4375 116.97265625 C-41.23336446 111.84549736 -36.88973234 106.83832485 -32.56152344 101.81591797 C-30.9974147 99.99699352 -29.43918924 98.17319921 -27.8828125 96.34765625 C-23.41768077 91.11360028 -18.94336671 85.90162956 -14.3125 80.8125 C-10.55484695 76.67168733 -7.02234062 72.38356407 -3.50390625 68.0390625 C0.44858717 63.2418084 4.54353931 58.57028829 8.625 53.8828125 C12.04063597 49.95960825 15.42973353 46.01405471 18.8125 42.0625 C19.33432861 41.45301514 19.85615723 40.84353027 20.39379883 40.21557617 C21.59621467 38.81068256 22.79816426 37.4053899 24 36 C22.78140882 32.53170202 21.6303913 30.51307338 19 28 C17.42866686 25.8699076 15.89127304 23.73095242 14.375 21.5625 C10.25281397 15.71135839 5.99338173 9.99143519 1.6171875 4.328125 C0 2 0 2 0 0 Z " fill="#053342" transform="translate(538,517)"/>
<path d="M0 0 C-0.33 2.31 -0.66 4.62 -1 7 C-1.33 5.68 -1.66 4.36 -2 3 C-8.56317934 9.35146388 -14.59053624 16.19898788 -20.3125 23.3125 C-24.20191158 28.1250529 -28.3274325 32.6459852 -32.5534668 37.15893555 C-36.49468246 41.39148848 -40.15834925 45.79965749 -43.78125 50.30859375 C-46.94666457 54.14833079 -50.30673091 57.7964401 -53.671875 61.4609375 C-62.07836905 70.62909377 -70.05508348 80.20015914 -78.125 89.6640625 C-82.58867561 94.89316218 -87.05980596 100.10185707 -91.6875 105.1875 C-94.71712868 108.52227114 -97.60608092 111.93287639 -100.4375 115.4375 C-104.30058217 120.21428509 -108.37911435 124.73946882 -112.5390625 129.2578125 C-114.91039895 131.90015883 -117.15252997 134.60694167 -119.375 137.375 C-122.76386167 141.57814645 -126.31241096 145.56201196 -130 149.5 C-134.51682854 154.32430883 -138.7708596 159.2885781 -142.9140625 164.44140625 C-146.14863597 168.40890741 -149.57795202 172.19456905 -153 176 C-157.2597747 180.81008052 -161.4469621 185.68151411 -165.625 190.5625 C-182.65890663 210.45829697 -182.65890663 210.45829697 -189.8125 218.3125 C-193.38101961 222.24502161 -196.68740465 226.33391363 -199.97265625 230.50390625 C-202.75954129 233.93515778 -205.73995281 237.17306472 -208.71875 240.4375 C-211.04028821 243.04525525 -213.24530355 245.72041144 -215.4375 248.4375 C-219.29825137 253.211403 -223.37437075 257.73388428 -227.53125 262.25 C-229.94378104 264.93737634 -232.2325621 267.68965444 -234.5 270.5 C-237.55348679 274.28460334 -240.70668301 277.92207537 -244 281.5 C-248.11378909 285.9698512 -251.97087297 290.59044893 -255.78515625 295.31640625 C-258.66480887 298.80550916 -261.70693876 302.12996921 -264.75390625 305.47265625 C-267.06187598 308.06962393 -269.25555863 310.73404013 -271.4375 313.4375 C-274.46717714 317.18652856 -277.59604948 320.77972867 -280.875 324.3125 C-286.64398521 330.57130471 -291.82005209 337.25425034 -297 344 C-300.36578227 340.75128842 -303.29564325 337.45660929 -306.0625 333.6875 C-306.83207031 332.6459375 -307.60164062 331.604375 -308.39453125 330.53125 C-308.80912598 329.96792969 -309.2237207 329.40460938 -309.65087891 328.82421875 C-312.65607935 324.76072658 -315.70922283 320.73275946 -318.75024414 316.69604492 C-321.89664289 312.50701497 -324.97000946 308.27405599 -328 304 C-327.45472656 303.40574219 -326.90945313 302.81148438 -326.34765625 302.19921875 C-322.27614316 297.72403427 -318.30526067 293.20456389 -314.5 288.5 C-310.88967558 284.03723787 -307.11572071 279.77280467 -303.25 275.53125 C-300.92137947 272.9115519 -298.70437053 270.2248469 -296.5 267.5 C-293.5918662 263.9052235 -290.61458668 260.41739372 -287.5 257 C-283.67829137 252.80270966 -280.08525811 248.46289769 -276.515625 244.05078125 C-273.02487122 239.81742923 -269.41361199 235.69337015 -265.80664062 231.55908203 C-262.55327802 227.82038486 -259.36772494 224.04105163 -256.25 220.1875 C-252.71808913 215.82417215 -249.01293064 211.6616152 -245.234375 207.51171875 C-242.99865467 204.99848768 -240.86622318 202.42688521 -238.75 199.8125 C-234.07052325 194.03436349 -229.2058418 188.43101044 -224.32421875 182.82421875 C-221.19707968 179.23232055 -218.09481234 175.61975649 -215 172 C-210.30794492 166.51522682 -205.58696014 161.05623674 -200.85546875 155.60546875 C-196.7282839 150.84787858 -192.62405693 146.07115083 -188.53271484 141.28271484 C-185.89424978 138.19796828 -183.24216233 135.12621262 -180.5703125 132.0703125 C-179.99539063 131.41160156 -179.42046875 130.75289062 -178.828125 130.07421875 C-177.73413347 128.82215046 -176.63796088 127.57198267 -175.5390625 126.32421875 C-171.80030611 122.04181666 -168.35646882 117.58732342 -165 113 C-165.79096069 112.4126709 -165.79096069 112.4126709 -166.59790039 111.81347656 C-176.09315376 104.75308849 -185.5469569 97.66410476 -194.74829102 90.22314453 C-198.78543236 86.95996867 -202.87180834 83.77207598 -207 80.625 C-211.46352988 77.21268369 -215.79038813 73.72012212 -220 70 C-219 68 -219 68 -216.19586182 66.91323853 C-214.94045593 66.52115204 -213.68505005 66.12906555 -212.39160156 65.72509766 C-211.70032669 65.50689865 -211.00905182 65.28869965 -210.29682922 65.06388855 C-207.99698487 64.33996802 -205.69388971 63.62701852 -203.390625 62.9140625 C-201.78631311 62.41149576 -200.18221026 61.90826128 -198.57830811 61.40438843 C-194.3373272 60.0740933 -190.09350738 58.75308539 -185.84906006 57.43389893 C-181.57859365 56.1048124 -177.31091956 54.76682516 -173.04296875 53.4296875 C-159.70523204 49.25415218 -146.36104814 45.10041275 -133 41 C-115.79719105 35.7145737 -98.63941584 30.29963766 -81.5 24.8125 C-65.08334396 19.55723785 -48.6482906 14.36541458 -32.1875 9.25 C-31.23456055 8.95372711 -30.28162109 8.65745422 -29.29980469 8.35220337 C-26.58946445 7.50996514 -23.87881524 6.66873226 -21.16796875 5.828125 C-20.38451584 5.58501083 -19.60106293 5.34189667 -18.79386902 5.09141541 C-16.53029941 4.39080155 -14.26533813 3.69487248 -12 3 C-11.10173492 2.72200562 -10.20346985 2.44401123 -9.27798462 2.15759277 C-8.37841034 1.88225708 -7.47883606 1.60692139 -6.55200195 1.32324219 C-5.31870903 0.94386505 -5.31870903 0.94386505 -4.0605011 0.55682373 C-2 0 -2 0 0 0 Z " fill="#339B4F" transform="translate(862,207)"/>
<path d="M0 0 C21.20073793 -0.04668065 42.40146742 -0.08196952 63.60224628 -0.10362434 C73.44570443 -0.11394543 83.28913068 -0.12802164 93.13256836 -0.15087891 C101.71016673 -0.17078733 110.287742 -0.18371038 118.86536282 -0.18817699 C123.40889576 -0.1907887 127.95236261 -0.19694457 132.4958744 -0.21146011 C136.76968819 -0.2250038 141.04340847 -0.22922917 145.31724167 -0.22621536 C146.88823008 -0.22676697 148.45922152 -0.23076352 150.03019142 -0.23841095 C152.17061896 -0.24832206 154.31069079 -0.24598311 156.4511261 -0.24050903 C158.25000511 -0.24327441 158.25000511 -0.24327441 160.08522511 -0.24609566 C163 0 163 0 166 2 C147.79922986 2.8048108 129.64296184 3.13843113 111.42578125 3.09765625 C108.90846282 3.09578386 106.39114401 3.09436386 103.87382507 3.09336853 C97.34920183 3.08960783 90.82460199 3.07983528 84.29998779 3.06866455 C77.60168759 3.05830916 70.90338408 3.05384111 64.20507812 3.04882812 C51.13670895 3.03820503 38.06835574 3.02141046 25 3 C26.27333694 3.31905304 27.54667389 3.63810608 28.8585968 3.96682739 C29.57484883 4.14629473 30.29110086 4.32576206 31.0290575 4.5106678 C33.02885916 5.00716496 35.03231433 5.47919945 37.04296875 5.9296875 C79.93655842 15.6684401 117.81006202 37.27846102 150 67 C150.97839844 67.86367188 151.95679688 68.72734375 152.96484375 69.6171875 C159.69883767 75.58200825 165.52377469 81.82804008 171 89 C171.73863281 89.95777344 172.47726562 90.91554688 173.23828125 91.90234375 C178.72320406 99.1113701 183.89627669 106.51936537 189 114 C188.67 114.66 188.34 115.32 188 116 C186.8140625 115.60167969 185.628125 115.20335937 184.40625 114.79296875 C165.4688086 108.55000755 147.36838034 105.8080224 127.42626953 105.75976562 C125.03251422 105.75013087 122.63964618 105.71905249 120.24609375 105.6875 C108.66621917 105.60953107 96.78991775 106.27130697 85.65087891 109.72924805 C85.10608887 109.81859619 84.56129883 109.90794434 84 110 C81.5234375 107.87890625 81.5234375 107.87890625 79 105 C77.93652344 103.80697266 77.93652344 103.80697266 76.8515625 102.58984375 C70.18630256 94.64999902 63.98148519 86.39673515 57.79296875 78.08203125 C54.400163 73.52485092 50.96167248 69.00498953 47.5 64.5 C42.80742001 58.38853163 38.17347956 52.23573082 33.5625 46.0625 C28.7119985 39.57189191 23.8024526 33.13401065 18.8125 26.75 C14.21422102 20.8602673 9.6376812 14.9556858 5.125 9 C4.60655518 8.32291992 4.08811035 7.64583984 3.55395508 6.94824219 C0 2.23242892 0 2.23242892 0 0 Z " fill="#053040" transform="translate(232,233)"/>
<path d="M0 0 C3.25 0.5625 3.25 0.5625 4.43481445 1.96313477 C4.8030835 2.59533936 5.17135254 3.22754395 5.55078125 3.87890625 C5.98052246 4.60859619 6.41026367 5.33828613 6.85302734 6.09008789 C7.31402832 6.90598389 7.7750293 7.72187988 8.25 8.5625 C8.98597412 9.85692017 8.98597412 9.85692017 9.73681641 11.17749023 C11.40044604 14.131867 13.04514165 17.09624934 14.6875 20.0625 C20.07396209 29.74092949 25.5705538 39.34629117 31.19116211 48.890625 C35.98891872 57.05256011 40.62669223 65.30096609 45.25 73.5625 C45.28092239 72.74230881 45.31184479 71.92211761 45.34370422 71.07707214 C45.637516 63.35139721 45.94503885 55.62644841 46.26801777 47.90194225 C46.43358407 43.93056791 46.593821 39.9591268 46.74194336 35.98706055 C46.8850587 32.15450218 47.04208801 28.32274514 47.20882225 24.49114418 C47.27001061 23.02850587 47.32616397 21.56564805 47.37722206 20.10262108 C47.44954516 18.05482978 47.53966459 16.00854713 47.6340332 13.96166992 C47.68066605 12.79584885 47.72729889 11.63002777 47.77534485 10.42887878 C48.25 7.5625 48.25 7.5625 49.62834167 5.65083313 C51.25 4.5625 51.25 4.5625 53.8125 4.75 C56.25 5.5625 56.25 5.5625 58.25 7.5625 C58.64648438 9.53208923 58.64648438 9.53208923 58.84375 11.95288086 C58.91722656 12.85271698 58.99070312 13.7525531 59.06640625 14.67965698 C59.37698705 19.55648802 59.58232644 24.43274704 59.75 29.31640625 C59.79060547 30.41613266 59.83121094 31.51585907 59.87304688 32.64891052 C60.00166249 36.1408399 60.12617174 39.63289784 60.25 43.125 C60.53043982 50.94938044 60.82062719 58.77316502 61.13598633 66.59622192 C61.24146779 69.34051856 61.32842369 72.084805 61.41210938 74.82983398 C61.47170915 76.35534329 61.53218177 77.88081888 61.59375 79.40625 C61.63693359 80.68822266 61.68011719 81.97019531 61.72460938 83.29101562 C62.56515306 88.52488428 65.33463643 91.25171463 69.25 94.5625 C70.58403442 97.23056885 70.41897222 99.33323313 70.4375 102.3125 C70.45167969 103.33859375 70.46585937 104.3646875 70.48046875 105.421875 C70.25 108.5625 70.25 108.5625 68.99609375 111.5 C67.88674112 114.71240839 67.88674112 114.71240839 69.8046875 118.140625 C70.55774593 119.37722622 71.33197178 120.60114298 72.125 121.8125 C76.25 128.40160891 76.25 128.40160891 76.25 130.5625 C74.46118264 131.56758801 72.66885304 132.56642736 70.875 133.5625 C69.87726563 134.119375 68.87953125 134.67625 67.8515625 135.25 C65.25 136.5625 65.25 136.5625 63.25 136.5625 C62.07866942 134.10629149 60.91278278 131.64775083 59.75 129.1875 C59.41613281 128.48882813 59.08226562 127.79015625 58.73828125 127.0703125 C56.25 121.7890625 56.25 121.7890625 56.25 119.5625 C55.68152344 119.62050781 55.11304688 119.67851563 54.52734375 119.73828125 C49.21958334 120.0484175 45.89423835 119.54537751 41.7578125 116.1015625 C37.6847022 111.94403541 36.02474082 108.36631674 35.875 102.5 C35.92486053 99.42360518 36.16916525 97.71856246 37.6015625 94.953125 C38.67664046 89.33163299 35.63340377 85.2580295 33 80.375 C32.50242187 79.41658203 32.00484375 78.45816406 31.4921875 77.47070312 C30.09372958 74.7868467 28.67709318 72.11345313 27.25234985 69.44348145 C20.18778642 56.1863211 13.24559114 42.86592683 6.46850586 29.45947266 C5.51702248 27.58360145 4.55982062 25.71062165 3.59741211 23.84033203 C2.18306887 21.09023334 0.78696877 18.33155343 -0.60546875 15.5703125 C-1.25517891 14.3203801 -1.25517891 14.3203801 -1.91801453 13.04519653 C-4.79245789 7.27632691 -4.79245789 7.27632691 -4.5715332 3.56201172 C-3.36622787 0.62844539 -3.23837389 0.66239466 0 0 Z " fill="#F5FAFA" transform="translate(302.75,420.4375)"/>
<path d="M0 0 C0.66 0 1.32 0 2 0 C3.58315015 2.03069452 5.05046234 4.06399117 6.5 6.1875 C10.09378312 11.34449223 13.77370914 16.40691839 17.625 21.375 C18.06263672 21.93985107 18.50027344 22.50470215 18.95117188 23.08666992 C19.96543617 24.39267812 20.98239187 25.69659555 22 27 C20.81470703 27.92039062 20.81470703 27.92039062 19.60546875 28.859375 C16.97501843 30.84796175 16.97501843 30.84796175 15.3125 33.25 C14.879375 33.8275 14.44625 34.405 14 35 C13.34 35 12.68 35 12 35 C11.78085937 35.52851562 11.56171875 36.05703125 11.3359375 36.6015625 C9.50928338 39.88099417 7.08905026 42.56779984 4.625 45.375 C3.53506092 46.63142773 2.4452199 47.88794053 1.35546875 49.14453125 C0.79778809 49.78471191 0.24010742 50.42489258 -0.33447266 51.08447266 C-2.92543378 54.06434381 -5.49439239 57.06293345 -8.0625 60.0625 C-8.55419678 60.63669678 -9.04589355 61.21089355 -9.55249023 61.80249023 C-10.54077753 62.95697989 -11.52881609 64.11168252 -12.51660156 65.26660156 C-13.51508357 66.43335966 -14.51444949 67.59936185 -15.51464844 68.76464844 C-24.10101266 78.29009791 -24.10101266 78.29009791 -31 89 C-34.19917876 84.97162233 -37.37825789 80.92872943 -40.53710938 76.86865234 C-41.86028795 75.17846396 -43.20128138 73.5043659 -44.546875 71.83203125 C-45.27390625 70.89746094 -46.0009375 69.96289062 -46.75 69 C-47.40484375 68.175 -48.0596875 67.35 -48.734375 66.5 C-50.43915818 63.13252704 -50.16745126 61.56234139 -49 58 C-46.99609375 55.359375 -46.99609375 55.359375 -44.4375 52.75 C-41.17597889 49.3394901 -38.03568127 45.90704428 -35.125 42.1875 C-29.9554121 35.61651779 -24.46284868 29.32688759 -19 23 C-16.78963487 20.4392425 -14.58167704 17.87643577 -12.375 15.3125 C-11.86614258 14.72436523 -11.35728516 14.13623047 -10.83300781 13.53027344 C-8.73000608 11.08655393 -6.79108228 8.68662342 -5 6 C-4.34 6 -3.68 6 -3 6 C-2.690625 5.195625 -2.38125 4.39125 -2.0625 3.5625 C-1 1 -1 1 0 0 Z " fill="#022231" transform="translate(599,586)"/>
<path d="M0 0 C4.69788147 3.33091044 7.72546712 7.33281437 11.0625 11.9375 C12.09436669 13.34295138 13.12690412 14.7479106 14.16015625 16.15234375 C14.64371582 16.81218262 15.12727539 17.47202148 15.62548828 18.15185547 C17.3588113 20.48245143 19.16378249 22.74986296 21 25 C19.47920927 28.50827915 17.4004327 30.95271646 14.8125 33.75 C14.00425781 34.63300781 13.19601562 35.51601563 12.36328125 36.42578125 C11.58339844 37.27527344 10.80351563 38.12476563 10 39 C6.15681482 43.28568411 2.44425429 47.65865944 -1.1875 52.125 C-6.15073743 58.22389345 -11.26654232 64.1838579 -16.39892578 70.14013672 C-19.18822428 73.38028249 -21.96855612 76.62811205 -24.75 79.875 C-25.76558655 81.05992879 -26.78120786 82.24482779 -27.796875 83.4296875 C-28.88742187 84.70199219 -28.88742187 84.70199219 -30 86 C-33.3636321 84.58209264 -35.12259119 82.95040417 -37.34765625 80.078125 C-37.95287109 79.29953125 -38.55808594 78.5209375 -39.18164062 77.71875 C-39.80232422 76.9040625 -40.42300781 76.089375 -41.0625 75.25 C-41.68705078 74.45078125 -42.31160156 73.6515625 -42.95507812 72.828125 C-46.13274593 68.70427863 -48.89963049 64.77006995 -51 60 C-50.3709375 59.32195313 -49.741875 58.64390625 -49.09375 57.9453125 C-44.91324472 53.39964261 -40.81451002 48.86193696 -37 44 C-34.15655826 40.3784736 -31.1811184 36.95021337 -28.0625 33.5625 C-24.01327721 29.16197478 -20.19504682 24.63390867 -16.44140625 19.98046875 C-13.0305711 15.8165212 -9.5129487 11.74715113 -5.98486328 7.68237305 C-3.82983966 5.18878406 -1.83083267 2.746249 0 0 Z " fill="#095627" transform="translate(651,525)"/>
<path d="M0 0 C-1.56915101 3.7073348 -3.87895254 6.20891864 -6.625 9.125 C-10.5808293 13.38315396 -14.28364097 17.77099789 -17.875 22.33984375 C-20.33824114 25.42342319 -22.87925028 28.43271142 -25.4375 31.4375 C-28.83206947 35.42680222 -32.19376532 39.43670264 -35.5 43.5 C-39.33908159 48.21757414 -43.25099054 52.86848254 -47.1953125 57.49804688 C-49.85330151 60.62255607 -52.4541007 63.78350252 -55 67 C-58.54083401 65.819722 -59.1793437 64.79119286 -61.36328125 61.84375 C-62.32331055 60.55597656 -62.32331055 60.55597656 -63.30273438 59.2421875 C-63.96595703 58.33726562 -64.62917969 57.43234375 -65.3125 56.5 C-65.96412109 55.62601562 -66.61574219 54.75203125 -67.28710938 53.8515625 C-71.36741563 48.3458039 -75.25910686 42.74146917 -79 37 C-75.19615056 34.63794301 -71.3046581 32.61891973 -67.27734375 30.6640625 C-66.62751022 30.34821701 -65.9776767 30.03237152 -65.30815125 29.70695496 C-63.18593322 28.67686076 -61.06186473 27.65065897 -58.9375 26.625 C-58.21012634 26.27295502 -57.48275269 25.92091003 -56.7333374 25.55819702 C-43.21960915 19.01956472 -29.64067963 12.62846414 -15.99316406 6.37353516 C-13.9401981 5.43144817 -11.89020553 4.48286255 -9.84277344 3.52880859 C-8.85051758 3.06941895 -7.85826172 2.6100293 -6.8359375 2.13671875 C-5.95212402 1.72510498 -5.06831055 1.31349121 -4.15771484 0.8894043 C-2 0 -2 0 0 0 Z " fill="#379A51" transform="translate(636,361)"/>
<path d="M0 0 C21.20073793 -0.04668065 42.40146742 -0.08196952 63.60224628 -0.10362434 C73.44570443 -0.11394543 83.28913068 -0.12802164 93.13256836 -0.15087891 C101.71016673 -0.17078733 110.287742 -0.18371038 118.86536282 -0.18817699 C123.40889576 -0.1907887 127.95236261 -0.19694457 132.4958744 -0.21146011 C136.76968819 -0.2250038 141.04340847 -0.22922917 145.31724167 -0.22621536 C146.88823008 -0.22676697 148.45922152 -0.23076352 150.03019142 -0.23841095 C152.17061896 -0.24832206 154.31069079 -0.24598311 156.4511261 -0.24050903 C158.25000511 -0.24327441 158.25000511 -0.24327441 160.08522511 -0.24609566 C163 0 163 0 166 2 C149.03381456 2.75423857 132.10715134 3.13551751 115.12464905 3.07516479 C111.41671177 3.06209631 107.70881124 3.05581275 104.00085449 3.05102539 C96.16721926 3.03977518 88.33361587 3.02044891 80.5 3 C71.32735123 2.9762251 62.15471418 2.95604747 52.98204041 2.94406128 C49.33081787 2.93758788 45.67964763 2.92509834 42.02844238 2.91235352 C39.81127976 2.90872467 37.59411665 2.90537249 35.37695312 2.90234375 C33.8577829 2.89459427 33.8577829 2.89459427 32.30792236 2.88668823 C31.38360413 2.88661774 30.45928589 2.88654724 29.50695801 2.88647461 C28.70411629 2.884254 27.90127457 2.88203339 27.07410431 2.87974548 C24.80233277 2.92100791 24.80233277 2.92100791 22 4 C20.09887695 3.92993164 20.09887695 3.92993164 17.98828125 3.66015625 C17.23095703 3.56669922 16.47363281 3.47324219 15.69335938 3.37695312 C14.51483398 3.22129883 14.51483398 3.22129883 13.3125 3.0625 C12.51521484 2.96259766 11.71792969 2.86269531 10.89648438 2.75976562 C8.93022565 2.51251153 6.96500294 2.25704363 5 2 C4.67 3.32 4.34 4.64 4 6 C2.62437146 4.71034824 1.29233607 3.37310707 0 2 C0 1.34 0 0.68 0 0 Z " fill="#133D49" transform="translate(232,233)"/>
<path d="M0 0 C9.57 0 19.14 0 29 0 C29 2.64 29 5.28 29 8 C19.43 8 9.86 8 0 8 C0 5.36 0 2.72 0 0 Z " fill="#F4FCFC" transform="translate(203,519)"/>
<path d="M0 0 C9.24 0 18.48 0 28 0 C28 2.64 28 5.28 28 8 C18.76 8 9.52 8 0 8 C0 5.36 0 2.72 0 0 Z " fill="#F6FEFE" transform="translate(480,519)"/>
<path d="M0 0 C2.31 0 4.62 0 7 0 C7 9.9 7 19.8 7 30 C4.69 30 2.38 30 0 30 C0 20.1 0 10.2 0 0 Z " fill="#F1FAFA" transform="translate(352,649)"/>
<path d="M0 0 C2 1.8125 2 1.8125 4 4 C4 4.99 4 5.98 4 7 C0.58789799 8.98711598 -2.83041936 10.96328601 -6.25 12.9375 C-7.21808594 13.50146484 -8.18617188 14.06542969 -9.18359375 14.64648438 C-10.11816406 15.18466797 -11.05273438 15.72285156 -12.015625 16.27734375 C-13.30388184 17.02359009 -13.30388184 17.02359009 -14.61816406 17.78491211 C-16.77633041 18.8858955 -18.63383748 19.53778404 -21 20 C-21.66 18.02 -22.32 16.04 -23 14 C-19.91863261 12.03856015 -16.83457112 10.08139707 -13.75 8.125 C-12.87730469 7.56941406 -12.00460937 7.01382812 -11.10546875 6.44140625 C-10.26113281 5.90644531 -9.41679687 5.37148438 -8.546875 4.8203125 C-7.38430176 4.08192139 -7.38430176 4.08192139 -6.19824219 3.32861328 C-4.17317168 2.10466463 -2.1320653 1.02356123 0 0 Z " fill="#EDF6F7" transform="translate(485,443)"/>
<path d="M0 0 C5.14772022 1.76822097 9.6256583 4.62252375 14.25 7.4375 C15.07757813 7.92798828 15.90515625 8.41847656 16.7578125 8.92382812 C17.54414063 9.40142578 18.33046875 9.87902344 19.140625 10.37109375 C20.21618652 11.0196936 20.21618652 11.0196936 21.31347656 11.68139648 C23 13 23 13 24 16 C23.0625 18.1875 23.0625 18.1875 22 20 C16.30520398 18.44520109 11.66949283 15.62680513 6.6875 12.5625 C5.45290039 11.82676758 5.45290039 11.82676758 4.19335938 11.07617188 C3.41154297 10.59857422 2.62972656 10.12097656 1.82421875 9.62890625 C1.11354248 9.19650635 0.40286621 8.76410645 -0.3293457 8.31860352 C-2 7 -2 7 -3 4 C-1.5625 1.8125 -1.5625 1.8125 0 0 Z " fill="#EEF7F7" transform="translate(225,443)"/>
<path d="M0 0 C3.71521715 1.23840572 4.02035066 2.25278467 5.91796875 5.5859375 C6.44970703 6.51664062 6.98144531 7.44734375 7.52929688 8.40625 C8.35010742 9.87578125 8.35010742 9.87578125 9.1875 11.375 C9.74630859 12.34695313 10.30511719 13.31890625 10.88085938 14.3203125 C15 21.60299336 15 21.60299336 15 25 C12 27 12 27 10.00317383 26.91162109 C7.21578214 25.64311158 6.45824745 24.0585363 4.94921875 21.4140625 C4.41619141 20.48335938 3.88316406 19.55265625 3.33398438 18.59375 C2.79064453 17.6140625 2.24730469 16.634375 1.6875 15.625 C0.84348633 14.16707031 0.84348633 14.16707031 -0.01757812 12.6796875 C-3.06386706 7.2806344 -3.06386706 7.2806344 -4 5 C-3 2 -3 2 0 0 Z " fill="#ECF5F6" transform="translate(281,388)"/>
<path d="M0 0 C2.31 0 4.62 0 7 0 C7 9.57 7 19.14 7 29 C4.69 29 2.38 29 0 29 C0 19.43 0 9.86 0 0 Z " fill="#EFF8F8" transform="translate(353,369)"/>
<path d="M0 0 C2.43465427 1.03828622 3.08999502 2.00502039 4.43969727 4.26074219 C4.86444336 4.95683594 5.28918945 5.65292969 5.72680664 6.37011719 C6.15670898 7.10230469 6.58661133 7.83449219 7.02954102 8.58886719 C7.46331055 9.30558594 7.89708008 10.02230469 8.34399414 10.76074219 C9.18507773 12.15358685 10.01823975 13.55125282 10.8425293 14.95410156 C11.79627624 16.55265268 12.81103715 18.11455237 13.83813477 19.66699219 C14.21067383 20.38371094 14.58321289 21.10042969 14.96704102 21.83886719 C14.63704102 22.82886719 14.30704102 23.81886719 13.96704102 24.83886719 C11.40454102 26.02636719 11.40454102 26.02636719 8.96704102 26.83886719 C3.79851035 18.70564634 -0.887953 10.55280021 -5.03295898 1.83886719 C-2.03295898 -0.16113281 -2.03295898 -0.16113281 0 0 Z " fill="#ECF6F7" transform="translate(420.032958984375,632.1611328125)"/>
<path d="M0 0 C3.84967428 0.57820011 6.55259546 1.69352625 9.86328125 3.72265625 C11.19262695 4.52993164 11.19262695 4.52993164 12.54882812 5.35351562 C13.46083984 5.91748047 14.37285156 6.48144531 15.3125 7.0625 C16.24384766 7.63033203 17.17519531 8.19816406 18.13476562 8.78320312 C20.42730656 10.18224093 22.71543753 11.58798481 25 13 C24.34 14.98 23.68 16.96 23 19 C17.4490363 18.12218733 13.53430134 15.60047082 8.8125 12.6875 C7.99330078 12.20087891 7.17410156 11.71425781 6.33007812 11.21289062 C5.54697266 10.73400391 4.76386719 10.25511719 3.95703125 9.76171875 C3.24522705 9.32819092 2.53342285 8.89466309 1.80004883 8.44799805 C-0.22619634 6.81804279 -1.01834128 5.38330053 -2 3 C-1.34 2.01 -0.68 1.02 0 0 Z " fill="#EDF6F7" transform="translate(464,584)"/>
<path d="M0 0 C1.65 0.99 3.3 1.98 5 3 C4.4133247 6.75063565 3.35059992 9.559276 1.49609375 12.86328125 C1.00302734 13.74951172 0.50996094 14.63574219 0.00195312 15.54882812 C-0.51431641 16.46083984 -1.03058594 17.37285156 -1.5625 18.3125 C-2.08263672 19.24384766 -2.60277344 20.17519531 -3.13867188 21.13476562 C-4.41976974 23.42663795 -5.70702105 25.71481613 -7 28 C-11.705557 26.55213631 -11.705557 26.55213631 -12.96826172 24.18432617 C-13.01170597 21.19435913 -12.01998679 19.62070032 -10.5078125 17.05078125 C-9.96769531 16.12072266 -9.42757813 15.19066406 -8.87109375 14.23242188 C-8.29488281 13.26884766 -7.71867187 12.30527344 -7.125 11.3125 C-6.55652344 10.33732422 -5.98804688 9.36214844 -5.40234375 8.35742188 C-1.22053571 1.22053571 -1.22053571 1.22053571 0 0 Z " fill="#ECF5F6" transform="translate(290,631)"/>
<path d="M0 0 C2 3 2 3 2 6 C0.02807617 7.54980469 0.02807617 7.54980469 -2.70703125 9.171875 C-4.1755957 10.04392578 -4.1755957 10.04392578 -5.67382812 10.93359375 C-6.70958984 11.53300781 -7.74535156 12.13242187 -8.8125 12.75 C-9.83666016 13.36488281 -10.86082031 13.97976563 -11.91601562 14.61328125 C-17.63308519 17.96479613 -17.63308519 17.96479613 -20 19 C-20.99 18.67 -21.98 18.34 -23 18 C-24.1875 15.4375 -24.1875 15.4375 -25 13 C-12.74684684 5.36781959 -12.74684684 5.36781959 -6.875 2 C-6.19179687 1.608125 -5.50859375 1.21625 -4.8046875 0.8125 C-3 0 -3 0 0 0 Z " fill="#EDF6F7" transform="translate(247,584)"/>
<path d="M0 0 C4.75 0.875 4.75 0.875 7 2 C4.99936528 7.23799388 2.34088051 11.95486211 -0.4375 16.8125 C-0.92798828 17.69615234 -1.41847656 18.57980469 -1.92382812 19.49023438 C-2.40142578 20.32490234 -2.87902344 21.15957031 -3.37109375 22.01953125 C-3.80349365 22.78370361 -4.23589355 23.54787598 -4.68139648 24.33520508 C-5.11653564 24.8845874 -5.5516748 25.43396973 -6 26 C-9 26 -9 26 -12 24 C-11.42282622 20.28713583 -10.40601794 17.58258204 -8.49609375 14.35546875 C-8.00302734 13.51435547 -7.50996094 12.67324219 -7.00195312 11.80664062 C-6.22754883 10.51016602 -6.22754883 10.51016602 -5.4375 9.1875 C-4.91736328 8.30384766 -4.39722656 7.42019531 -3.86132812 6.50976562 C-2.5805605 4.33598572 -1.2933166 2.16632913 0 0 Z " fill="#EEF7F7" transform="translate(428,389)"/>
<path d="M0 0 C2.54685809 0.0785782 3.81954973 0.17584047 6.0625 1.4375 C7.566606 4.25769875 7.51162849 6.16860056 7.0625 9.3125 C5.4375 11.6875 5.4375 11.6875 3.0625 13.3125 C-0.08139944 13.76162849 -1.99230125 13.816606 -4.8125 12.3125 C-6.69071874 8.97344446 -6.23829454 6.10251126 -5.9375 2.3125 C-3.9375 0.3125 -3.9375 0.3125 0 0 Z " fill="#184652" transform="translate(355.9375,516.6875)"/>
<path d="M0 0 C5.29297438 0.73287338 9.74413521 3.14116766 14.47265625 5.47265625 C17.96712503 7.15988461 21.14432193 8.46613688 25 9 C25 9.66 25 10.32 25 11 C25.7321875 11.13792969 26.464375 11.27585937 27.21875 11.41796875 C29.7035721 11.93796663 32.07463981 12.56911049 34.5 13.3125 C35.78970703 13.70695313 35.78970703 13.70695313 37.10546875 14.109375 C38.06066406 14.40328125 39.01585937 14.6971875 40 15 C41.10988281 15.33515625 42.21976563 15.6703125 43.36328125 16.015625 C44.50152344 16.36109375 45.63976562 16.7065625 46.8125 17.0625 C47.87082031 17.38347656 48.92914062 17.70445312 50.01953125 18.03515625 C52.73934997 18.91562181 55.35282104 19.92485126 58 21 C59.59979042 21.55445837 61.20385302 22.09678756 62.8125 22.625 C63.60269531 22.88539063 64.39289063 23.14578125 65.20703125 23.4140625 C65.79871094 23.60742188 66.39039063 23.80078125 67 24 C63.0849413 25.49996025 60.33250394 24.46459899 56.41796875 23.26171875 C55.77515457 23.06541367 55.13234039 22.86910858 54.470047 22.66685486 C52.37163471 22.01984453 50.27939166 21.35527056 48.1875 20.6875 C47.47424561 20.46302185 46.76099121 20.2385437 46.02612305 20.00726318 C30.0820534 14.97142313 14.91135037 8.55922623 0 1 C0 0.67 0 0.34 0 0 Z " fill="#166D45" transform="translate(768,760)"/>
<path d="M0 0 C3.70196942 1.23398981 4.31217164 2.89426616 6.1328125 6.2109375 C7 8 7 8 8 11 C8.66 11 9.32 11 10 11 C11.4453125 13.0546875 11.4453125 13.0546875 13.125 15.875 C16.15575315 20.78734573 19.47365171 25.23882485 23.1328125 29.6953125 C25.56964803 32.70312205 27.78996542 35.82307528 30 39 C29.67 39.66 29.34 40.32 29 41 C21.94107589 31.94050523 15.0897767 22.74059443 8.296875 13.48046875 C5.22714682 9.29819115 2.12192187 5.14342264 -1 1 C-0.67 0.67 -0.34 0.34 0 0 Z " fill="#3A9160" transform="translate(535,510)"/>
<path d="M0 0 C0.33 0 0.66 0 1 0 C0.54379857 7.64865369 0.08063144 15.2971276 -0.5 22.9375 C-0.5721875 23.89527344 -0.644375 24.85304688 -0.71875 25.83984375 C-1 28 -1 28 -2 29 C-2.53548344 32.09590427 -2.96573602 35.20121132 -3.40234375 38.3125 C-3.59957031 39.199375 -3.79679688 40.08625 -4 41 C-4.99 41.495 -4.99 41.495 -6 42 C-4.38602187 27.94140107 -2.19834237 13.9772336 0 0 Z " fill="#CDEBDA" transform="translate(850,275)"/>
<path d="M0 0 C3.54703518 3.42169825 6.64190399 6.95407447 9.625 10.875 C10.25317627 11.69907349 10.25317627 11.69907349 10.89404297 12.53979492 C16.01949122 19.29280442 21.01264085 26.14475159 26 33 C25.01 33 24.02 33 23 33 C19.75967119 29.42561667 17.09063616 25.37804082 14.3125 21.4375 C10.20584167 15.63350527 5.9643795 9.95390288 1.6171875 4.328125 C0 2 0 2 0 0 Z " fill="#0C5042" transform="translate(538,517)"/>
<path d="M0 0 C11.22 0 22.44 0 34 0 C34 0.33 34 0.66 34 1 C33.02417969 1.06058594 32.04835938 1.12117187 31.04296875 1.18359375 C29.13451172 1.30927734 29.13451172 1.30927734 27.1875 1.4375 C25.92292969 1.51871094 24.65835937 1.59992188 23.35546875 1.68359375 C20.00818107 1.87184547 20.00818107 1.87184547 17 3 C14.93412885 2.91426773 12.87053475 2.76166465 10.8125 2.5625 C9.18248047 2.40974609 9.18248047 2.40974609 7.51953125 2.25390625 C6.68808594 2.17011719 5.85664063 2.08632812 5 2 C4.67 3.32 4.34 4.64 4 6 C2.62437146 4.71034824 1.29233607 3.37310707 0 2 C0 1.34 0 0.68 0 0 Z " fill="#13353F" transform="translate(232,233)"/>
<path d="M0 0 C0.33 0 0.66 0 1 0 C1.24933861 7.41003171 0.30000049 14.2763486 -1 21.5625 C-1.19078125 22.66658203 -1.3815625 23.77066406 -1.578125 24.90820312 C-2.04539889 27.60670984 -2.51948722 30.3038249 -3 33 C-3.33 33 -3.66 33 -4 33 C-4.05420701 30.43721301 -4.09377007 27.87558517 -4.125 25.3125 C-4.15013672 24.2306543 -4.15013672 24.2306543 -4.17578125 23.12695312 C-4.2145264 18.88435916 -3.71561186 15.84871102 -2 12 C-1.59012883 9.40530485 -1.59012883 9.40530485 -1.4375 6.8125 C-1.09841828 2.19683656 -1.09841828 2.19683656 0 0 Z " fill="#206E3F" transform="translate(851,261)"/>
<path d="M0 0 C0.66 0.33 1.32 0.66 2 1 C1.236875 1.886875 0.47375 2.77375 -0.3125 3.6875 C-1.9135758 5.59716304 -3.1882275 7.32735218 -4.4375 9.5 C-6.53770655 12.86033048 -9.13667149 15.26393053 -12 18 C-12.99 17.67 -13.98 17.34 -15 17 C-13.87851562 15.78763672 -13.87851562 15.78763672 -12.734375 14.55078125 C-11.73949763 13.47143316 -10.74471077 12.39200163 -9.75 11.3125 C-9.25886719 10.78205078 -8.76773438 10.25160156 -8.26171875 9.70507812 C-5.37269261 6.56566972 -2.62459433 3.36822939 0 0 Z " fill="#449358" transform="translate(583,454)"/>
<path d="M0 0 C0 2.33333333 0 4.66666667 0 7 C0.9876241 8.93045968 0.9876241 8.93045968 2.375 10.6875 C3.03628906 11.59048828 3.03628906 11.59048828 3.7109375 12.51171875 C4.95048383 14.13494691 4.95048383 14.13494691 7 15 C11 21.35294118 11 21.35294118 11 25 C8.70262753 22.08778729 6.41312301 19.16948376 4.125 16.25 C3.47402344 15.425 2.82304688 14.6 2.15234375 13.75 C1.52714844 12.95078125 0.90195312 12.1515625 0.2578125 11.328125 C-0.3182373 10.5949707 -0.89428711 9.86181641 -1.48779297 9.10644531 C-2.90451325 7.13300931 -3.98584875 5.20240573 -5 3 C-3.35 2.01 -1.7 1.02 0 0 Z " fill="#3D8F5E" transform="translate(562,395)"/>
<path d="M0 0 C0.33 0 0.66 0 1 0 C0.88822884 3.29225138 0.75807764 6.58354647 0.625 9.875 C0.5940625 10.7928125 0.563125 11.710625 0.53125 12.65625 C0.26580092 18.93854489 -0.58309564 24.874511 -2 31 C-2.66 30.67 -3.32 30.34 -4 30 C-2.94967756 19.9437213 -1.83402901 9.95058292 0 0 Z " fill="#C5E4D2" transform="translate(857,231)"/>
<path d="M0 0 C3.59476701 3.49205938 6.92026191 7.04033675 10 11 C10 11.66 10 12.32 10 13 C7.37348569 12.71880143 4.74930665 12.42556162 2.125 12.125 C1.00544922 12.00705078 1.00544922 12.00705078 -0.13671875 11.88671875 C-5.7734375 11.2265625 -5.7734375 11.2265625 -8 9 C-3.21521178 8.90235126 1.27685687 9.22887459 6 10 C5.566875 9.44570313 5.13375 8.89140625 4.6875 8.3203125 C3.8521875 7.23363281 3.8521875 7.23363281 3 6.125 C2.1646875 5.04605469 2.1646875 5.04605469 1.3125 3.9453125 C0 2 0 2 0 0 Z " fill="#227247" transform="translate(845,776)"/>
<path d="M0 0 C0.33 0.66 0.66 1.32 1 2 C-2.56100815 7.88340477 -6.96746843 13.31038494 -12 18 C-12.99 18 -13.98 18 -15 18 C-14.16855469 17.03578125 -13.33710937 16.0715625 -12.48046875 15.078125 C-11.38274647 13.80214013 -10.28509388 12.52609531 -9.1875 11.25 C-8.64029297 10.61578125 -8.09308594 9.9815625 -7.52929688 9.328125 C-4.91608821 6.28730038 -2.3441871 3.25718629 0 0 Z " fill="#DEF7E4" transform="translate(606,397)"/>
<path d="M0 0 C0.33 0.66 0.66 1.32 1 2 C-1.14217701 6.41582338 -4.3581863 9.77698365 -7.6875 13.3125 C-8.45416992 14.13717773 -8.45416992 14.13717773 -9.23632812 14.97851562 C-10.48697034 16.3226638 -11.74294624 17.661846 -13 19 C-13.66 18.67 -14.32 18.34 -15 18 C-14.16855469 17.03578125 -13.33710937 16.0715625 -12.48046875 15.078125 C-11.38274647 13.80214013 -10.28509388 12.52609531 -9.1875 11.25 C-8.64029297 10.61578125 -8.09308594 9.9815625 -7.52929688 9.328125 C-4.91608821 6.28730038 -2.3441871 3.25718629 0 0 Z " fill="#DEF6E9" transform="translate(745,415)"/>
<path d="M0 0 C0 0.66 0 1.32 0 2 C-1.65 2.66 -3.3 3.32 -5 4 C-2.525 6.97 -2.525 6.97 0 10 C-3.58912412 10 -4.10857029 9.33563446 -6.6875 7 C-7.31011719 6.443125 -7.93273437 5.88625 -8.57421875 5.3125 C-9.04472656 4.879375 -9.51523437 4.44625 -10 4 C-9 2 -9 2 -6.125 0.875 C-3 0 -3 0 0 0 Z " fill="#4A965F" transform="translate(652,273)"/>
<path d="M0 0 C3.96 0.33 7.92 0.66 12 1 C12.33 1.99 12.66 2.98 13 4 C11.20841511 4.02696365 9.41671527 4.04637917 7.625 4.0625 C6.62726563 4.07410156 5.62953125 4.08570313 4.6015625 4.09765625 C2 4 2 4 0 3 C0 2.01 0 1.02 0 0 Z " fill="#D2E6E9" transform="translate(495,537)"/>
<path d="M0 0 C0.33 0.99 0.66 1.98 1 3 C0.22914063 3.83144531 -0.54171875 4.66289062 -1.3359375 5.51953125 C-2.3490665 6.61708767 -3.36208137 7.71474944 -4.375 8.8125 C-4.88289062 9.35970703 -5.39078125 9.90691406 -5.9140625 10.47070312 C-8.15216303 12.90022015 -10.16379112 15.24568668 -12 18 C-12.66 18 -13.32 18 -14 18 C-12.68761832 15.15741394 -11.23292824 12.90591755 -9.1796875 10.546875 C-8.64472656 9.928125 -8.10976563 9.309375 -7.55859375 8.671875 C-7.00300781 8.03765625 -6.44742188 7.4034375 -5.875 6.75 C-5.31167969 6.1003125 -4.74835937 5.450625 -4.16796875 4.78125 C-2.78235636 3.184273 -1.39167246 1.59169878 0 0 Z " fill="#DDF5E8" transform="translate(714,452)"/>
<path d="M0 0 C0.33 1.32 0.66 2.64 1 4 C-0.14453125 5.703125 -0.14453125 5.703125 -1.8125 7.25 C-2.35519531 7.77078125 -2.89789062 8.2915625 -3.45703125 8.828125 C-5 10 -5 10 -7 10 C-7.33 10.99 -7.66 11.98 -8 13 C-8.99 12.67 -9.98 12.34 -11 12 C-7.37 8.04 -3.74 4.08 0 0 Z " fill="#439358" transform="translate(562,479)"/>
<path d="M0 0 C0.66 0.33 1.32 0.66 2 1 C1.01 8.26 0.02 15.52 -1 23 C-3 21 -3 21 -3.265625 19.01171875 C-3.23508765 14.46928719 -2.87483813 11.19081464 -1 7 C-0.6186926 4.67402489 -0.27539746 2.34087842 0 0 Z " fill="#1E703F" transform="translate(856,228)"/>
<path d="M0 0 C0.99 0 1.98 0 3 0 C2.68950274 1.43793392 2.3765224 2.8753318 2.0625 4.3125 C1.88847656 5.11300781 1.71445312 5.91351562 1.53515625 6.73828125 C1 9 1 9 0 12 C-0.99 12 -1.98 12 -3 12 C-2.49202991 7.6822542 -1.80317221 3.96697886 0 0 Z " fill="#CFE3E6" transform="translate(310,659)"/>
<path d="M0 0 C0.99 0.33 1.98 0.66 3 1 C1.5140084 5.59306496 -0.85014682 8.43569245 -4 12 C-4.66 11.67 -5.32 11.34 -6 11 C-4.54955729 6.89041233 -2.48889248 3.56741255 0 0 Z " fill="#D5E9EC" transform="translate(271,637)"/>
<path d="M0 0 C2.64752004 2.57784846 4.94432065 4.91648098 7 8 C7 8.99 7 9.98 7 11 C6.01 11 5.02 11 4 11 C2.39453125 9.3203125 2.39453125 9.3203125 0.8125 7.125 C0.01779297 6.04605469 0.01779297 6.04605469 -0.79296875 4.9453125 C-2 3 -2 3 -2 1 C-1.34 0.67 -0.68 0.34 0 0 Z " fill="#D4E8EB" transform="translate(439,637)"/>
<path d="M0 0 C-1 3 -1 3 -2.99609375 4.16796875 C-3.80175781 4.50441406 -4.60742188 4.84085937 -5.4375 5.1875 C-6.24058594 5.53167969 -7.04367187 5.87585938 -7.87109375 6.23046875 C-10 7 -10 7 -12 7 C-11.875 5.1875 -11.875 5.1875 -11 3 C-7.25241255 0.61517162 -4.43651689 -0.39145737 0 0 Z " fill="#D7EAED" transform="translate(496,460)"/>
<path d="M0 0 C4.56454251 0.54339792 7.9728176 1.79463821 12 4 C11.67 4.99 11.34 5.98 11 7 C9.5410574 6.52269162 8.08286504 6.04308958 6.625 5.5625 C5.81289062 5.29566406 5.00078125 5.02882813 4.1640625 4.75390625 C2 4 2 4 0 3 C0 2.01 0 1.02 0 0 Z " fill="#D8ECEE" transform="translate(216,460)"/>
<path d="M0 0 C0.99 0 1.98 0 3 0 C3.70226141 1.24176695 4.38629109 2.49385599 5.0625 3.75 C5.44535156 4.44609375 5.82820313 5.1421875 6.22265625 5.859375 C7.1312406 8.36140628 6.88336837 9.5332355 6 12 C5.34 12 4.68 12 4 12 C3.32645501 10.56570999 2.66140299 9.12742943 2 7.6875 C1.62875 6.88699219 1.2575 6.08648437 0.875 5.26171875 C0 3 0 3 0 0 Z " fill="#D5EBED" transform="translate(293,382)"/>
<path d="M0 0 C0.99 0 1.98 0 3 0 C3 4.29 3 8.58 3 13 C2.01 13 1.02 13 0 13 C0 8.71 0 4.42 0 0 Z " fill="#CEE2E5" transform="translate(339,369)"/>
<path d="M0 0 C0.99 0 1.98 0 3 0 C2.67 3.96 2.34 7.92 2 12 C1.01 12 0.02 12 -1 12 C-1.14285714 3.42857143 -1.14285714 3.42857143 0 0 Z " fill="#D6E9EC" transform="translate(339,666)"/>
<path d="M0 0 C4.29926263 1.59231949 6.35005733 4.39313359 9 8 C9 8.99 9 9.98 9 11 C4.70073737 9.40768051 2.64994267 6.60686641 0 3 C0 2.01 0 1.02 0 0 Z " fill="#D3E7EA" transform="translate(449,628)"/>
<path d="M0 0 C3.63 0.33 7.26 0.66 11 1 C11.33 2.32 11.66 3.64 12 5 C6.06 4.01 6.06 4.01 0 3 C0 2.01 0 1.02 0 0 Z " fill="#D7E8EB" transform="translate(206,490)"/>
<path d="M0 0 C0.99 0.33 1.98 0.66 3 1 C2.0919838 2.13199353 1.17316174 3.25532363 0.25 4.375 C-0.26046875 5.00148438 -0.7709375 5.62796875 -1.296875 6.2734375 C-3.08199481 8.08312318 -4.67949644 9.00117455 -7 10 C-7 6 -7 6 -5.57421875 4.26171875 C-4.64029297 3.48248047 -4.64029297 3.48248047 -3.6875 2.6875 C-2.76517578 1.88892578 -2.76517578 1.88892578 -1.82421875 1.07421875 C-0.92123047 0.54248047 -0.92123047 0.54248047 0 0 Z " fill="#D8ECF0" transform="translate(467,419)"/>
<path d="M0 0 C1.34444159 0.90029571 2.67531438 1.82088022 4 2.75 C5.11375 3.51570313 5.11375 3.51570313 6.25 4.296875 C6.8275 4.85890625 7.405 5.4209375 8 6 C8 7.32 8 8.64 8 10 C4.46627288 8.03681826 1.75520215 5.95929119 -1 3 C-0.67 2.01 -0.34 1.02 0 0 Z " fill="#D7EAED" transform="translate(243,419)"/>
<path d="M0 0 C0.99 0.33 1.98 0.66 3 1 C1.4422692 4.82352106 -0.91595258 7.29205593 -4 10 C-4.99 10 -5.98 10 -7 10 C-5.33248852 6.05860922 -2.77289351 3.2107188 0 0 Z " fill="#D6EAED" transform="translate(456,408)"/>
<path d="M0 0 C3.61938095 2.64116988 5.98706523 4.97413046 8 9 C8 9.66 8 10.32 8 11 C5.53471865 10.60935585 4.26692012 10.26760629 2.48046875 8.4765625 C2.05378906 7.86554688 1.62710937 7.25453125 1.1875 6.625 C0.74792969 6.01914062 0.30835938 5.41328125 -0.14453125 4.7890625 C-1 3 -1 3 0 0 Z " fill="#D7ECEF" transform="translate(266,398)"/>
<path d="M0 0 C0.99 0.33 1.98 0.66 3 1 C1.34406255 4.58786447 -0.62837691 7.83783588 -3 11 C-3.99 11 -4.98 11 -6 11 C-5.39305845 7.84669446 -4.3583335 5.81111133 -2.4375 3.25 C-1.98246094 2.63640625 -1.52742188 2.0228125 -1.05859375 1.390625 C-0.70925781 0.93171875 -0.35992187 0.4728125 0 0 Z " fill="#D4E8EB" transform="translate(444,398)"/>
<path d="M0 0 C0.99 0.33 1.98 0.66 3 1 C2.52269162 2.4589426 2.04308958 3.91713496 1.5625 5.375 C1.29566406 6.18710937 1.02882813 6.99921875 0.75390625 7.8359375 C0 10 0 10 -1 12 C-1.99 12 -2.98 12 -4 12 C-3.33501617 7.61110675 -1.81242323 4.0188515 0 0 Z " fill="#DBF0F2" transform="translate(416,382)"/>
<path d="M0 0 C0.99 0 1.98 0 3 0 C3.99 3.96 4.98 7.92 6 12 C5.01 12 4.02 12 3 12 C2.49166409 10.75336669 1.99368855 9.50250613 1.5 8.25 C1.2215625 7.55390625 0.943125 6.8578125 0.65625 6.140625 C0 4 0 4 0 0 Z " fill="#DAECEF" transform="translate(308,376)"/>
<path d="M0 0 C0.99 0 1.98 0 3 0 C4.29243536 4.1196377 5.26252625 7.66831683 5 12 C4.01 12 3.02 12 2 12 C0.86235649 7.73383684 0 4.43513689 0 0 Z " fill="#D2E8EC" transform="translate(323,372)"/>
<path d="M0 0 C0.99 0 1.98 0 3 0 C2.85904936 1.6254308 2.71207913 3.25034051 2.5625 4.875 C2.48128906 5.77992188 2.40007812 6.68484375 2.31640625 7.6171875 C2 10 2 10 1 12 C0.01 12 -0.98 12 -2 12 C-1.44687265 7.97007218 -0.8441938 3.97977076 0 0 Z " fill="#D4E9EC" transform="translate(324,663)"/>
<path d="M0 0 C0.66 0.33 1.32 0.66 2 1 C2.6328125 3.72265625 2.6328125 3.72265625 3.125 7.0625 C3.29257812 8.16722656 3.46015625 9.27195312 3.6328125 10.41015625 C3.75398438 11.26480469 3.87515625 12.11945312 4 13 C3.01 13 2.02 13 1 13 C-1.42857143 4.57142857 -1.42857143 4.57142857 0 0 Z " fill="#D4E9ED" transform="translate(385,662)"/>
<path d="M0 0 C3 1 3 1 4.16796875 2.99609375 C4.50441406 3.80175781 4.84085937 4.60742188 5.1875 5.4375 C5.53167969 6.24058594 5.87585938 7.04367187 6.23046875 7.87109375 C7 10 7 10 7 12 C6.01 12 5.02 12 4 12 C3.32332002 10.75539217 2.65905281 9.50403104 2 8.25 C1.62875 7.55390625 1.2575 6.8578125 0.875 6.140625 C0 4 0 4 0 0 Z " fill="#DAEDF0" transform="translate(412,653)"/>
<path d="M0 0 C0.99 0.66 1.98 1.32 3 2 C1.35 5.3 -0.3 8.6 -2 12 C-2.99 11.67 -3.98 11.34 -5 11 C-4.35731563 9.35293447 -3.71076198 7.70737825 -3.0625 6.0625 C-2.70285156 5.14597656 -2.34320313 4.22945312 -1.97265625 3.28515625 C-1 1 -1 1 0 0 Z " fill="#D4E8EA" transform="translate(297,653)"/>
<path d="M0 0 C1.32176485 0.90325616 2.63215066 1.82317903 3.9375 2.75 C4.66839844 3.26046875 5.39929688 3.7709375 6.15234375 4.296875 C8.20805399 6.19177915 8.62669176 7.27425729 9 10 C4.56541027 8.6062718 2.12621626 6.39417765 -1 3 C-0.67 2.01 -0.34 1.02 0 0 Z " fill="#DDF0F3" transform="translate(460,617)"/>
<path d="M0 0 C-1.5577308 3.82352106 -3.91595258 6.29205593 -7 9 C-7.99 9 -8.98 9 -10 9 C-9.74410214 5.54537888 -8.71373837 4.72618453 -6.125 2.25 C-3 0 -3 0 0 0 Z " fill="#E6F8F9" transform="translate(252,618)"/>
<path d="M0 0 C0.99 0.33 1.98 0.66 3 1 C1.76736651 4.69790046 0.79947549 4.9354846 -2.5625 6.6875 C-3.80193359 7.34298828 -3.80193359 7.34298828 -5.06640625 8.01171875 C-5.70449219 8.33785156 -6.34257812 8.66398438 -7 9 C-7.33 8.01 -7.66 7.02 -8 6 C-6.7391988 4.96680187 -5.46596742 3.94875621 -4.1875 2.9375 C-3.47980469 2.36902344 -2.77210938 1.80054688 -2.04296875 1.21484375 C-1.36878906 0.81394531 -0.69460937 0.41304687 0 0 Z " fill="#CFE5E8" transform="translate(240,606)"/>
<path d="M0 0 C4.12751449 0.60698743 7.3321148 2.03810791 11 4 C11 4.99 11 5.98 11 7 C9.5410574 6.52269162 8.08286504 6.04308958 6.625 5.5625 C5.81289063 5.29566406 5.00078125 5.02882813 4.1640625 4.75390625 C2 4 2 4 0 3 C0 2.01 0 1.02 0 0 Z " fill="#D7EBEE" transform="translate(484,580)"/>
<path d="M0 0 C1.43791516 0.14168137 2.8753237 0.28851043 4.3125 0.4375 C5.11300781 0.51871094 5.91351563 0.59992187 6.73828125 0.68359375 C9 1 9 1 12 2 C12 2.99 12 3.98 12 5 C8.875 4.47916667 5.75 3.95833333 2.625 3.4375 C1.75875 3.293125 0.8925 3.14875 0 3 C0 2.01 0 1.02 0 0 Z " fill="#D3E8EB" transform="translate(493,552)"/>
<path d="M0 0 C0 0.99 0 1.98 0 3 C-1.24663331 3.50833591 -2.49749387 4.00631145 -3.75 4.5 C-4.44609375 4.7784375 -5.1421875 5.056875 -5.859375 5.34375 C-8 6 -8 6 -12 6 C-11.67 5.01 -11.34 4.02 -11 3 C-9.00390625 2.05078125 -9.00390625 2.05078125 -6.5625 1.3125 C-5.75941406 1.06113281 -4.95632813 0.80976563 -4.12890625 0.55078125 C-2 0 -2 0 0 0 Z " fill="#D7EBEE" transform="translate(501,474)"/>
<path d="M0 0 C7.95393759 4.35215453 7.95393759 4.35215453 10 7 C10 7.66 10 8.32 10 9 C6.84669446 8.39305845 4.81111133 7.3583335 2.25 5.4375 C1.63640625 4.98246094 1.0228125 4.52742188 0.390625 4.05859375 C-0.06828125 3.70925781 -0.5271875 3.35992187 -1 3 C-0.67 2.01 -0.34 1.02 0 0 Z " fill="#D8EDEF" transform="translate(233,431)"/>
<path d="M0 0 C3.82964655 1.56022637 6.32190489 3.87555571 9 7 C9 8.32 9 9.64 9 11 C5.77651004 9.92550335 4.95861919 9.13675431 2.8125 6.625 C2.28269531 6.01914062 1.75289062 5.41328125 1.20703125 4.7890625 C0 3 0 3 0 0 Z " fill="#DEEFF1" transform="translate(253,408)"/>
<path d="M0 0 C0.33 0 0.66 0 1 0 C1.30654742 8.61738853 1.39589303 15.93475404 -2 24 C-2.99626083 20.82978983 -2.96516845 18.5026511 -2.44140625 15.234375 C-2.30283203 14.34492188 -2.16425781 13.45546875 -2.02148438 12.5390625 C-1.87001953 11.61867188 -1.71855469 10.69828125 -1.5625 9.75 C-1.41490234 8.81414062 -1.26730469 7.87828125 -1.11523438 6.9140625 C-0.75052478 4.60815669 -0.37855026 2.30366712 0 0 Z " fill="#CFEEDC" transform="translate(830,399)"/>
<path d="M0 0 C0.66 0 1.32 0 2 0 C3.00496852 3.01490557 3.10335303 5.04181692 3.0625 8.1875 C3.05347656 9.08855469 3.04445313 9.98960937 3.03515625 10.91796875 C3.02355469 11.60503906 3.01195312 12.29210937 3 13 C2.01 13 1.02 13 0 13 C0 8.71 0 4.42 0 0 Z " fill="#D0E5E8" transform="translate(370,665)"/>
<path d="M0 0 C0.99 0.33 1.98 0.66 3 1 C2.57847656 1.48210938 2.15695312 1.96421875 1.72265625 2.4609375 C1.17480469 3.09257813 0.62695312 3.72421875 0.0625 4.375 C-0.48277344 5.00148438 -1.02804687 5.62796875 -1.58984375 6.2734375 C-3.06958624 7.95632334 -3.06958624 7.95632334 -4 10 C-4.99 10 -5.98 10 -7 10 C-6.42424336 6.64749299 -5.40693737 5.06181371 -2.9375 2.75 C-2.38964844 2.22921875 -1.84179688 1.7084375 -1.27734375 1.171875 C-0.64505859 0.59179688 -0.64505859 0.59179688 0 0 Z " fill="#D8EBEE" transform="translate(260,628)"/>
<path d="M0 0 C3.98542514 1.36643148 6.92539863 3.10109014 10 6 C10 6.99 10 7.98 10 9 C6.01457486 7.63356852 3.07460137 5.89890986 0 3 C0 2.01 0 1.02 0 0 Z " fill="#D8ECEF" transform="translate(469,606)"/>
<path d="M0 0 C-2.36092311 2.73370045 -4.56538728 3.91097645 -8 5 C-9.32 5 -10.64 5 -12 5 C-11 2 -11 2 -7.6875 0.25 C-3.02436902 -1.33072237 -3.02436902 -1.33072237 0 0 Z " fill="#D8EDEF" transform="translate(228,581)"/>
<path d="M0 0 C1.43793392 0.31049726 2.8753318 0.6234776 4.3125 0.9375 C5.11300781 1.11152344 5.91351563 1.28554688 6.73828125 1.46484375 C9 2 9 2 12 3 C12 3.99 12 4.98 12 6 C10.56206608 5.68950274 9.1246682 5.3765224 7.6875 5.0625 C6.88699219 4.88847656 6.08648437 4.71445312 5.26171875 4.53515625 C3 4 3 4 0 3 C0 2.01 0 1.02 0 0 Z " fill="#D9EDF0" transform="translate(489,566)"/>
<path d="M0 0 C3.96 0 7.92 0 12 0 C12 0.99 12 1.98 12 3 C8.04 3 4.08 3 0 3 C0 2.01 0 1.02 0 0 Z " fill="#D2E7EA" transform="translate(495,506)"/>
<path d="M0 0 C0 0.99 0 1.98 0 3 C-3.96 3.66 -7.92 4.32 -12 5 C-12 4.01 -12 3.02 -12 2 C-10.7625 1.67 -9.525 1.34 -8.25 1 C-7.55390625 0.814375 -6.8578125 0.62875 -6.140625 0.4375 C-4 0 -4 0 0 0 Z " fill="#E1F4F6" transform="translate(505,490)"/>
<path d="M0 0 C-0.39064415 2.46528135 -0.73239371 3.73307988 -2.5234375 5.51953125 C-3.43996094 6.15955078 -3.43996094 6.15955078 -4.375 6.8125 C-4.98085938 7.25207031 -5.58671875 7.69164062 -6.2109375 8.14453125 C-8 9 -8 9 -11 8 C-3.21621622 0 -3.21621622 0 0 0 Z " fill="#D5EAEE" transform="translate(479,431)"/>
<path d="M0 0 C0.66 0.33 1.32 0.66 2 1 C1.34 4.3 0.68 7.6 0 11 C-1.32 11.33 -2.64 11.66 -4 12 C-3.52494322 10.18641846 -3.04483958 8.37415821 -2.5625 6.5625 C-2.29566406 5.55316406 -2.02882813 4.54382813 -1.75390625 3.50390625 C-1 1 -1 1 0 0 Z " fill="#DCECEE" transform="translate(402,376)"/>
<path d="M0 0 C0.99 0 1.98 0 3 0 C3.50833591 1.24663331 4.00631145 2.49749387 4.5 3.75 C4.7784375 4.44609375 5.056875 5.1421875 5.34375 5.859375 C6 8 6 8 6 12 C5.01 11.67 4.02 11.34 3 11 C2.05078125 8.49609375 2.05078125 8.49609375 1.3125 5.4375 C1.06113281 4.42558594 0.80976563 3.41367187 0.55078125 2.37109375 C0.36902344 1.58863281 0.18726563 0.80617188 0 0 Z " fill="#DAEDEF" transform="translate(398,659)"/>
<path d="M0 0 C0.99 0 1.98 0 3 0 C2.85831863 1.43791516 2.71148957 2.8753237 2.5625 4.3125 C2.48128906 5.11300781 2.40007812 5.91351563 2.31640625 6.73828125 C2 9 2 9 1 12 C0.01 12 -0.98 12 -2 12 C-1.34 8.04 -0.68 4.08 0 0 Z " fill="#D3E8EC" transform="translate(386,372)"/>
<path d="M0 0 C0 0.99 0 1.98 0 3 C-5.445 4.485 -5.445 4.485 -11 6 C-11 5.01 -11 4.02 -11 3 C-9.73160474 2.49384702 -8.46016898 1.99530901 -7.1875 1.5 C-6.12595703 1.08234375 -6.12595703 1.08234375 -5.04296875 0.65625 C-3 0 -3 0 0 0 Z " fill="#DFF1F3" transform="translate(222,566)"/>
<path d="M0 0 C3.96 0 7.92 0 12 0 C12 0.99 12 1.98 12 3 C10.37509046 3.02698189 8.75005367 3.04638757 7.125 3.0625 C5.76761719 3.07990234 5.76761719 3.07990234 4.3828125 3.09765625 C2 3 2 3 0 2 C0 1.34 0 0.68 0 0 Z " fill="#D6EBEE" transform="translate(204,506)"/>
<path d="M0 0 C0.33 0.99 0.66 1.98 1 3 C-1.97 6.3 -4.94 9.6 -8 13 C-8.99 12.67 -9.98 12.34 -11 12 C-7.37 8.04 -3.74 4.08 0 0 Z " fill="#449157" transform="translate(614,418)"/>
<path d="M0 0 C4.87072783 4.56630734 8.89156398 9.74976539 13 15 C12.34 15.66 11.68 16.32 11 17 C9.5345138 15.10934188 8.07765297 13.21298003 6.625 11.3125 C6.2125 10.78205078 5.8 10.25160156 5.375 9.70507812 C3.00906418 6.59501734 1.25144944 3.70621566 0 0 Z " fill="#297346" transform="translate(795,711)"/>
<path d="M0 0 C0 0.99 0 1.98 0 3 C-3.63 3.66 -7.26 4.32 -11 5 C-11 4.01 -11 3.02 -11 2 C-7.17679443 0.57741188 -4.08718695 -0.24042276 0 0 Z " fill="#DEF0F2" transform="translate(218,552)"/>
<path d="M0 0 C7.42857143 1 7.42857143 1 11 2 C11 2.99 11 3.98 11 5 C9.741875 4.87625 8.48375 4.7525 7.1875 4.625 C6.12595703 4.52058594 6.12595703 4.52058594 5.04296875 4.4140625 C3 4 3 4 0 2 C0 1.34 0 0.68 0 0 Z " fill="#DDF1F3" transform="translate(211,475)"/>
<path d="M0 0 C0.99 0.33 1.98 0.66 3 1 C1.37561031 2.79222332 -0.24948446 4.5837983 -1.875 6.375 C-2.33519531 6.88289063 -2.79539062 7.39078125 -3.26953125 7.9140625 C-5.14601858 9.98091811 -7.02570548 12.02570548 -9 14 C-8.67 12.35 -8.34 10.7 -8 9 C-7.01 8.67 -6.02 8.34 -5 8 C-3.78130071 5.49552484 -3.78130071 5.49552484 -3 3 C-2.34 3 -1.68 3 -1 3 C-0.67 2.01 -0.34 1.02 0 0 Z " fill="#E1FAE9" transform="translate(640,384)"/>
<path d="M0 0 C0.66 0 1.32 0 2 0 C1.34 5.28 0.68 10.56 0 16 C-0.66 15.67 -1.32 15.34 -2 15 C-2.22577402 9.5814234 -1.46670113 5.22512279 0 0 Z " fill="#227341" transform="translate(837,346)"/>
<path d="M0 0 C0.33 0.99 0.66 1.98 1 3 C-2.63 6.96 -6.26 10.92 -10 15 C-10.66 14.67 -11.32 14.34 -12 14 C-8.04 9.38 -4.08 4.76 0 0 Z " fill="#D7F2E3" transform="translate(674,499)"/>
<path d="M0 0 C0.66 0 1.32 0 2 0 C2 3.96 2 7.92 2 12 C1.01 12 0.02 12 -1 12 C-1.14285714 3.42857143 -1.14285714 3.42857143 0 0 Z " fill="#DAEFF1" transform="translate(371,370)"/>
<path d="M0 0 C3.96 0 7.92 0 12 0 C12 0.66 12 1.32 12 2 C6.06 2.495 6.06 2.495 0 3 C0 2.01 0 1.02 0 0 Z " fill="#DCF1F4" transform="translate(204,538)"/>
<path d="M0 0 C0.66 0.33 1.32 0.66 2 1 C2 6.28 2 11.56 2 17 C-1.0689241 13.9310759 -1.063411 11.13325076 -1.125 6.9375 C-1 3 -1 3 0 0 Z " fill="#133845" transform="translate(338,514)"/>
<path d="M0 0 C-1.37592253 3.32514612 -2.75630292 5.33181293 -6 7 C-8.75 6.1875 -8.75 6.1875 -11 5 C-8.12934225 2.12934225 -4.13678472 0 0 0 Z " fill="#5E976D" transform="translate(636,361)"/>
<path d="M0 0 C-0.33 2.31 -0.66 4.62 -1 7 C-1.33 5.68 -1.66 4.36 -2 3 C-2.90492188 3.23396484 -2.90492188 3.23396484 -3.828125 3.47265625 C-4.62734375 3.66730469 -5.4265625 3.86195313 -6.25 4.0625 C-7.03890625 4.25972656 -7.8278125 4.45695313 -8.640625 4.66015625 C-11.10394822 5.01497267 -12.65604132 4.76877544 -15 4 C-12.87607494 3.3299166 -10.75082476 2.66403203 -8.625 2 C-7.44164062 1.62875 -6.25828125 1.2575 -5.0390625 0.875 C-2 0 -2 0 0 0 Z " fill="#5E966F" transform="translate(862,207)"/>
<path d="M0 0 C0.33 0.66 0.66 1.32 1 2 C0.59007812 2.53109375 0.18015625 3.0621875 -0.2421875 3.609375 C-0.78101563 4.31578125 -1.31984375 5.0221875 -1.875 5.75 C-2.40867187 6.44609375 -2.94234375 7.1421875 -3.4921875 7.859375 C-4.89238914 9.84722603 -5.97855265 11.79843386 -7 14 C-7.74609375 12.328125 -7.74609375 12.328125 -8 10 C-6.34765625 7.421875 -6.34765625 7.421875 -4.0625 4.75 C-2.93521484 3.41195312 -2.93521484 3.41195312 -1.78515625 2.046875 C-1.19605469 1.37140625 -0.60695313 0.6959375 0 0 Z " fill="#D6EFE0" transform="translate(661,514)"/>
<path d="M0 0 C0.33 0.99 0.66 1.98 1 3 C-0.43359375 5.04296875 -0.43359375 5.04296875 -2.4375 7.1875 C-3.09621094 7.90292969 -3.75492188 8.61835938 -4.43359375 9.35546875 C-4.95050781 9.89816406 -5.46742188 10.44085938 -6 11 C-6.66 10.67 -7.32 10.34 -8 10 C-7.67 9.01 -7.34 8.02 -7 7 C-6.34 7 -5.68 7 -5 7 C-4.67 5.68 -4.34 4.36 -4 3 C-3.34 3 -2.68 3 -2 3 C-2 2.34 -2 1.68 -2 1 C-1.34 0.67 -0.68 0.34 0 0 Z " fill="#287546" transform="translate(705,460)"/>
<path d="M0 0 C0.33 0.99 0.66 1.98 1 3 C-1.97 6.3 -4.94 9.6 -8 13 C-8.66 12.67 -9.32 12.34 -10 12 C-6.7 8.04 -3.4 4.08 0 0 Z " fill="#D8F2E4" transform="translate(729,434)"/>
<path d="M0 0 C0.598125 0.165 1.19625 0.33 1.8125 0.5 C4.11344336 1.1114124 4.11344336 1.1114124 7 1 C6.67 2.98 6.34 4.96 6 7 C1.2 4.53846154 1.2 4.53846154 0.1875 1.8125 C0.125625 1.214375 0.06375 0.61625 0 0 Z " fill="#267743" transform="translate(819,427)"/>
<path d="M0 0 C1.98 0.66 3.96 1.32 6 2 C6 2.66 6 3.32 6 4 C6.61875 4.268125 7.2375 4.53625 7.875 4.8125 C10 6 10 6 12 9 C8.0557333 9 7.17603973 7.68625863 4.3125 5.0625 C3.50425781 4.33160156 2.69601562 3.60070312 1.86328125 2.84765625 C1.24839844 2.23792969 0.63351562 1.62820313 0 1 C0 0.67 0 0.34 0 0 Z " fill="#2B7647" transform="translate(793,407)"/>
<path d="M0 0 C0.33 0.99 0.66 1.98 1 3 C-1.3125 6.1875 -1.3125 6.1875 -4 9 C-4.66 9 -5.32 9 -6 9 C-6.66 10.32 -7.32 11.64 -8 13 C-8.66 12.67 -9.32 12.34 -10 12 C-9.36191406 11.30132812 -8.72382812 10.60265625 -8.06640625 9.8828125 C-7.24011719 8.97273438 -6.41382813 8.06265625 -5.5625 7.125 C-4.73878906 6.22007812 -3.91507813 5.31515625 -3.06640625 4.3828125 C-0.99092058 2.18862073 -0.99092058 2.18862073 0 0 Z " fill="#4F9661" transform="translate(632,396)"/>
<path d="M0 0 C1.4540625 0.0309375 1.4540625 0.0309375 2.9375 0.0625 C-0.8184214 3.49181954 -5.29716745 4.62679083 -10.0625 6.0625 C-10.0625 5.4025 -10.0625 4.7425 -10.0625 4.0625 C-9.093125 3.588125 -8.12375 3.11375 -7.125 2.625 C-2.0625 0.04209184 -2.0625 0.04209184 0 0 Z " fill="#DEF8E6" transform="translate(584.0625,382.9375)"/>
<path d="M0 0 C-1 3 -1 3 -2.7421875 4.16796875 C-3.44601562 4.50441406 -4.14984375 4.84085937 -4.875 5.1875 C-5.57367187 5.53167969 -6.27234375 5.87585938 -6.9921875 6.23046875 C-9 7 -9 7 -12 7 C-12 6.34 -12 5.68 -12 5 C-10.37750059 4.16180842 -8.75191503 3.3295884 -7.125 2.5 C-6.22007812 2.0359375 -5.31515625 1.571875 -4.3828125 1.09375 C-2 0 -2 0 0 0 Z " fill="#49965D" transform="translate(612,372)"/>
<path d="M0 0 C0.66 0.66 1.32 1.32 2 2 C-0.97 4.97 -3.94 7.94 -7 11 C-7.66 10.67 -8.32 10.34 -9 10 C-6.03 6.7 -3.06 3.4 0 0 Z " fill="#449058" transform="translate(685,335)"/>
<path d="M0 0 C2.65614176 0.36969853 3.74758254 0.70475592 5.51953125 2.77734375 C5.94621094 3.49019531 6.37289062 4.20304688 6.8125 4.9375 C7.25207031 5.64777344 7.69164062 6.35804688 8.14453125 7.08984375 C8.42683594 7.72019531 8.70914063 8.35054687 9 9 C8.67 9.66 8.34 10.32 8 11 C6.66375099 9.35653302 5.33107149 7.71016314 4 6.0625 C3.2575 5.14597656 2.515 4.22945312 1.75 3.28515625 C0 1 0 1 0 0 Z " fill="#DBF5E6" transform="translate(843,772)"/>
<path d="M0 0 C-1.15628906 0.48919922 -1.15628906 0.48919922 -2.3359375 0.98828125 C-3.33882812 1.42527344 -4.34171875 1.86226562 -5.375 2.3125 C-6.37273437 2.74175781 -7.37046875 3.17101562 -8.3984375 3.61328125 C-11.25774508 4.8738406 -11.25774508 4.8738406 -13 8 C-13.33 6.68 -13.66 5.36 -14 4 C-11.35261084 2.5393715 -10.10551666 2 -7 2 C-7 1.34 -7 0.68 -7 0 C-3.98968256 -0.93423645 -3.13349732 -1.04449911 0 0 Z " fill="#1B414B" transform="translate(228,579)"/>
<path d="M0 0 C0.66 0.33 1.32 0.66 2 1 C0.34832443 4.5786304 -1.78286492 7.74820188 -4 11 C-4.65234375 9.234375 -4.65234375 9.234375 -5 7 C-4.00390625 5.078125 -4.00390625 5.078125 -2.5625 3.25 C-2.08941406 2.63640625 -1.61632812 2.0228125 -1.12890625 1.390625 C-0.75636719 0.93171875 -0.38382813 0.4728125 0 0 Z " fill="#173F4A" transform="translate(192,433)"/>
<path d="M0 0 C0.99 0.33 1.98 0.66 3 1 C0.36 4.3 -2.28 7.6 -5 11 C-5.33 9.68 -5.66 8.36 -6 7 C-5.360625 6.7525 -4.72125 6.505 -4.0625 6.25 C-1.81723287 5.19352316 -1.81723287 5.19352316 -1.3125 2.9375 C-1.1578125 1.9784375 -1.1578125 1.9784375 -1 1 C-0.67 0.67 -0.34 0.34 0 0 Z " fill="#48935D" transform="translate(614,384)"/>
<path d="M0 0 C0.33 0.99 0.66 1.98 1 3 C-0.8125 5.6875 -0.8125 5.6875 -3 8 C-3.66 8 -4.32 8 -5 8 C-5.66 9.32 -6.32 10.64 -7 12 C-7.66 11.67 -8.32 11.34 -9 11 C-6.03 7.37 -3.06 3.74 0 0 Z " fill="#DEF5E6" transform="translate(620,380)"/>
<path d="M0 0 C0.99 0.33 1.98 0.66 3 1 C0.36 3.97 -2.28 6.94 -5 10 C-5.33 9.01 -5.66 8.02 -6 7 C-5.34 7 -4.68 7 -4 7 C-3.896875 6.401875 -3.79375 5.80375 -3.6875 5.1875 C-2.91123545 2.71756736 -1.92911079 1.67748765 0 0 Z " fill="#DEF8E6" transform="translate(683,334)"/>
<path d="M0 0 C2.79872437 2.52788007 4.45773019 4.20411134 5 8 C5.66 8 6.32 8 7 8 C7.33 9.65 7.66 11.3 8 13 C4.0963126 9.53005564 1.63411025 5.44775994 -1 1 C-0.67 0.67 -0.34 0.34 0 0 Z " fill="#19343D" transform="translate(577,684)"/>
<path d="M0 0 C3.25516428 3.16474305 6.32008793 6.32752791 9 10 C9 10.66 9 11.32 9 12 C8.01 11.67 7.02 11.34 6 11 C5.3125 8.9375 5.3125 8.9375 5 7 C4.34 7 3.68 7 3 7 C0 2.61538462 0 2.61538462 0 0 Z " fill="#013D33" transform="translate(575,566)"/>
<path d="M0 0 C0.66 0 1.32 0 2 0 C3.5078125 1.75 3.5078125 1.75 5.125 4 C5.66382813 4.7425 6.20265625 5.485 6.7578125 6.25 C7.16773438 6.8275 7.57765625 7.405 8 8 C7.67 8.66 7.34 9.32 7 10 C4.09197539 7.78071806 2.04687238 6.07030857 0 3 C0 2.01 0 1.02 0 0 Z " fill="#013E35" transform="translate(563,551)"/>
<path d="M0 0 C1.98 0 3.96 0 6 0 C6.83848804 1.45537568 7.67063934 2.91440373 8.5 4.375 C8.9640625 5.18710937 9.428125 5.99921875 9.90625 6.8359375 C11 9 11 9 11 11 C10.01 10.67 9.02 10.34 8 10 C7.2265625 8.1875 7.2265625 8.1875 6.625 6 C5.95794409 3.83765437 5.95794409 3.83765437 5 2 C2.42919865 0.86559222 2.42919865 0.86559222 0 1 C0 0.67 0 0.34 0 0 Z " fill="#1F434D" transform="translate(353,541)"/>
<path d="M0 0 C3.63559661 3.43361902 6.36113346 6.7973607 9 11 C8.01 11.66 7.02 12.32 6 13 C5.566875 11.9275 5.13375 10.855 4.6875 9.75 C3.44552705 6.82249233 1.95643046 4.51541059 0 2 C0 1.34 0 0.68 0 0 Z " fill="#0D473E" transform="translate(571,418)"/>
<path d="M0 0 C0.66 0.33 1.32 0.66 2 1 C-0.64 3.97 -3.28 6.94 -6 10 C-6.33 9.34 -6.66 8.68 -7 8 C-5.6875 5.375 -5.6875 5.375 -4 3 C-3.34 3 -2.68 3 -2 3 C-2 2.34 -2 1.68 -2 1 C-1.34 0.67 -0.68 0.34 0 0 Z " fill="#1B683A" transform="translate(755,401)"/>
<path d="M0 0 C0.66 0 1.32 0 2 0 C2.33 0.99 2.66 1.98 3 3 C1.02 3.99 -0.96 4.98 -3 6 C-1.125 1.125 -1.125 1.125 0 0 Z M-5 6 C-4.34 6.33 -3.68 6.66 -3 7 C-3.99 7.66 -4.98 8.32 -6 9 C-5.67 8.01 -5.34 7.02 -5 6 Z " fill="#002E29" transform="translate(599,586)"/>
<path d="M0 0 C0.33 0.66 0.66 1.32 1 2 C-0.98 4.64 -2.96 7.28 -5 10 C-5.99 9.67 -6.98 9.34 -8 9 C-5.36 6.03 -2.72 3.06 0 0 Z " fill="#D5F0DB" transform="translate(631,367)"/>
<path d="M0 0 C0.99 0 1.98 0 3 0 C3.268125 0.804375 3.53625 1.60875 3.8125 2.4375 C4.204375 3.283125 4.59625 4.12875 5 5 C5.99 5.33 6.98 5.66 8 6 C8.33 7.65 8.66 9.3 9 11 C5.36440339 7.56638098 2.63886654 4.2026393 0 0 Z " fill="#DBF5E7" transform="translate(717,609)"/>
<path d="M0 0 C0.99 0.33 1.98 0.66 3 1 C1.02 3.31 -0.96 5.62 -3 8 C-3.99 7.67 -4.98 7.34 -6 7 C-6 6.34 -6 5.68 -6 5 C-5.38125 4.731875 -4.7625 4.46375 -4.125 4.1875 C-1.7004767 3.04443152 -1.7004767 3.04443152 0 0 Z " fill="#478D5D" transform="translate(584,420)"/>
<path d="M0 0 C0.66 0.33 1.32 0.66 2 1 C-0.31 3.97 -2.62 6.94 -5 10 C-5.33 8.68 -5.66 7.36 -6 6 C-5.34 6 -4.68 6 -4 6 C-4 5.34 -4 4.68 -4 4 C-3.34 4 -2.68 4 -2 4 C-1.34 2.68 -0.68 1.36 0 0 Z " fill="#DCF6E4" transform="translate(567,470)"/>
<path d="M0 0 C0.33 0.66 0.66 1.32 1 2 C-0.43257963 4.72872311 -1.81722366 6.81722366 -4 9 C-4.99 8.67 -5.98 8.34 -7 8 C-4.69 5.36 -2.38 2.72 0 0 Z " fill="#D5EEE0" transform="translate(745,415)"/>
<path d="M0 0 C1.65 0.33 3.3 0.66 5 1 C4.21625 1.598125 3.4325 2.19625 2.625 2.8125 C-0.14574323 4.91085249 -0.14574323 4.91085249 -2 8 C-2.66 7.67 -3.32 7.34 -4 7 C-2.68 4.69 -1.36 2.38 0 0 Z " fill="#E0F0F2" transform="translate(428,389)"/>
<path d="M0 0 C0.66 0 1.32 0 2 0 C1.67 3.3 1.34 6.6 1 10 C-1 8 -1 8 -1.1875 4.4375 C-1 1 -1 1 0 0 Z " fill="#2A7849" transform="translate(844,303)"/>
<path d="M0 0 C-1.4562545 0.67119549 -2.91507867 1.33681807 -4.375 2 C-5.59316406 2.556875 -5.59316406 2.556875 -6.8359375 3.125 C-9 4 -9 4 -11 4 C-11 3.34 -11 2.68 -11 2 C-4.03571429 -1.34821429 -4.03571429 -1.34821429 0 0 Z " fill="#DEF9E6" transform="translate(619,369)"/>
<path d="M0 0 C0.66 0.33 1.32 0.66 2 1 C-0.31 3.64 -2.62 6.28 -5 9 C-5.33 8.01 -5.66 7.02 -6 6 C-4.68 5.34 -3.36 4.68 -2 4 C-2 3.01 -2 2.02 -2 1 C-1.34 0.67 -0.68 0.34 0 0 Z " fill="#E5FCEC" transform="translate(663,358)"/>
<path d="M0 0 C0.33 0.99 0.66 1.98 1 3 C-0.14453125 4.82421875 -0.14453125 4.82421875 -1.8125 6.6875 C-2.35519531 7.31011719 -2.89789062 7.93273437 -3.45703125 8.57421875 C-5 10 -5 10 -7 10 C-5.33248852 6.05860922 -2.77289351 3.2107188 0 0 Z " fill="#539865" transform="translate(675,346)"/>
<path d="M0 0 C0.99 0.33 1.98 0.66 3 1 C0.03 4.96 0.03 4.96 -3 9 C-3.33 8.01 -3.66 7.02 -4 6 C-2.0625 2.8125 -2.0625 2.8125 0 0 Z " fill="#D9F6E1" transform="translate(695,319)"/>
<path d="M0 0 C0.66 0 1.32 0 2 0 C0.55746343 3.36591866 -1.33264727 5.51047079 -4 8 C-4.66 7.67 -5.32 7.34 -6 7 C-5.04882866 5.8274869 -4.08882991 4.66212985 -3.125 3.5 C-2.59132813 2.8503125 -2.05765625 2.200625 -1.5078125 1.53125 C-0.76144531 0.77328125 -0.76144531 0.77328125 0 0 Z " fill="#DCF4E6" transform="translate(685,486)"/>
<path d="M0 0 C0.33 0.66 0.66 1.32 1 2 C-0.65 4.31 -2.3 6.62 -4 9 C-4.99 8.67 -5.98 8.34 -7 8 C-4.69 5.36 -2.38 2.72 0 0 Z " fill="#D4EEDF" transform="translate(761,396)"/>
<path d="M0 0 C0 0.99 0 1.98 0 3 C-0.99 3.495 -0.99 3.495 -2 4 C-1.34 2.68 -0.68 1.36 0 0 Z M-6 5 C-5.01 5.33 -4.02 5.66 -3 6 C-4.485 7.485 -4.485 7.485 -6 9 C-6.99 8.67 -7.98 8.34 -9 8 C-8.01 7.01 -7.02 6.02 -6 5 Z " fill="#3E9454" transform="translate(673,351)"/>
<path d="M0 0 C1 3 1 3 0.0625 5.1875 C-0.4634375 6.0846875 -0.4634375 6.0846875 -1 7 C-1.99 6.67 -2.98 6.34 -4 6 C-1.125 1.125 -1.125 1.125 0 0 Z " fill="#E0F3F4" transform="translate(296,658)"/>
<path d="M0 0 C0.99 0.33 1.98 0.66 3 1 C2.34 2.32 1.68 3.64 1 5 C0.01 5 -0.98 5 -2 5 C-1.125 1.125 -1.125 1.125 0 0 Z " fill="#D2E4E7" transform="translate(244,622)"/>
<path d="M0 0 C1.32 0.33 2.64 0.66 4 1 C4 1.66 4 2.32 4 3 C0.37 3 -3.26 3 -7 3 C-7 2.67 -7 2.34 -7 2 C-4.69 2 -2.38 2 0 2 C0 1.34 0 0.68 0 0 Z " fill="#B0CACE" transform="translate(504,538)"/>
<path d="M0 0 C1 2 1 2 0.375 4.5625 C-1 7 -1 7 -3.625 7.8125 C-4.40875 7.874375 -5.1925 7.93625 -6 8 C-4.02 5.36 -2.04 2.72 0 0 Z " fill="#589D6A" transform="translate(550,492)"/>
<path d="M0 0 C0.99 0.33 1.98 0.66 3 1 C1.02 3.31 -0.96 5.62 -3 8 C-3.33 6.68 -3.66 5.36 -4 4 C-2.0625 1.75 -2.0625 1.75 0 0 Z " fill="#DDF9E6" transform="translate(587,446)"/>
<path d="M0 0 C0.66 0.66 1.32 1.32 2 2 C1.34 3.32 0.68 4.64 0 6 C-0.99 6 -1.98 6 -3 6 C-2.625 3.5625 -2.625 3.5625 -2 1 C-1.34 0.67 -0.68 0.34 0 0 Z " fill="#D2E7EB" transform="translate(415,388)"/>
<path d="M0 0 C0.66 0.33 1.32 0.66 2 1 C1.67 2.98 1.34 4.96 1 7 C0.01 7 -0.98 7 -2 7 C-1.125 1.125 -1.125 1.125 0 0 Z " fill="#E3F3F5" transform="translate(402,376)"/>
<path d="M0 0 C0 3.52809907 -0.64276511 4.46815512 -3 7 C-3.99 7 -4.98 7 -6 7 C-6 6.01 -6 5.02 -6 4 C-3.5625 2.375 -3.5625 2.375 -1 1 C-0.67 0.67 -0.34 0.34 0 0 Z " fill="#E5F5F7" transform="translate(259,631)"/>
<path d="M0 0 C-0.8125 1.9375 -0.8125 1.9375 -2 4 C-2.99 4.33 -3.98 4.66 -5 5 C-5.33 4.01 -5.66 3.02 -6 2 C-3 0 -3 0 0 0 Z " fill="#DBEFF4" transform="translate(238,610)"/>
<path d="M0 0 C-1.3125 1.5 -1.3125 1.5 -3 3 C-3.99 3 -4.98 3 -6 3 C-6 2.01 -6 1.02 -6 0 C-3.50907189 -1.24546405 -2.58919267 -0.7767578 0 0 Z " fill="#D3E7EA" transform="translate(499,492)"/>
<path d="M0 0 C-1.39332574 3.36720387 -2.9789286 4.9859524 -6 7 C-6 6.01 -6 5.02 -6 4 C-5.34 4 -4.68 4 -4 4 C-4 3.01 -4 2.02 -4 1 C-2 0 -2 0 0 0 Z " fill="#1F6D3E" transform="translate(687,483)"/>
<path d="M0 0 C1.32 0.66 2.64 1.32 4 2 C3.071875 2.4021875 3.071875 2.4021875 2.125 2.8125 C-0.2995233 3.95556848 -0.2995233 3.95556848 -2 7 C-2.33 6.01 -2.66 5.02 -3 4 C-1.5625 1.8125 -1.5625 1.8125 0 0 Z " fill="#E0F0F2" transform="translate(225,443)"/>
<path d="M0 0 C0.598125 0.226875 1.19625 0.45375 1.8125 0.6875 C0.8225 0.6875 -0.1675 0.6875 -1.1875 0.6875 C-1.47625 1.285625 -1.765 1.88375 -2.0625 2.5 C-3.1875 4.6875 -3.1875 4.6875 -5.1875 7.6875 C-5.41803497 4.84423536 -5.54653101 3.22604651 -3.9375 0.8125 C-2.1875 -0.3125 -2.1875 -0.3125 0 0 Z " fill="#C5D9DE" transform="translate(356.1875,425.3125)"/>
<path d="M0 0 C1.65 1.65 3.3 3.3 5 5 C3.68 5.33 2.36 5.66 1 6 C0.34 4.35 -0.32 2.7 -1 1 C-0.67 0.67 -0.34 0.34 0 0 Z " fill="#D1E6E9" transform="translate(266,398)"/>
<path d="M0 0 C0 0.66 0 1.32 0 2 C-5.75 5 -5.75 5 -8 5 C-8 4.34 -8 3.68 -8 3 C-2.25 0 -2.25 0 0 0 Z " fill="#49935B" transform="translate(572,391)"/>
<path d="M0 0 C0.66 0.33 1.32 0.66 2 1 C2 2.65 2 4.3 2 6 C1.01 6 0.02 6 -1 6 C-1.042721 4.33388095 -1.04063832 2.66617115 -1 1 C-0.67 0.67 -0.34 0.34 0 0 Z " fill="#173F4B" transform="translate(384,371)"/>
<path d="M0 0 C0.33 1.32 0.66 2.64 1 4 C-0.65 5.32 -2.3 6.64 -4 8 C-4.66 7.67 -5.32 7.34 -6 7 C-4.02 4.69 -2.04 2.38 0 0 Z " fill="#529A66" transform="translate(693,325)"/>
</svg>
